<svg xmlns="http://www.w3.org/2000/svg" xmlns:xlink="http://www.w3.org/1999/xlink" width="394.94" height="184.015" viewBox="0 0 394.94 184.015">
  <defs>
    <clipPath id="clip-path">
      <rect id="Rectangle_449" data-name="Rectangle 449" width="394.94" height="184.015" fill="none"/>
    </clipPath>
  </defs>
  <g id="Group_1592" data-name="Group 1592" clip-path="url(#clip-path)">
    <path id="Path_893" data-name="Path 893" d="M147.529,6.791s-3.812,3.337-3.817,11.433l-.647,134.52,5.622-.155c6.686-.187,8.342-5.652,8.357-12.341L157.912.35s-3.708-2.614-10.383,6.44" transform="translate(-16.532 0)" fill="#fff"/>
    <path id="Path_894" data-name="Path 894" d="M93.327,47.8s-3.36,2.94-3.364,10.073l-.431,39.278c-1.758,0-3.453-.019-4.88-.019H69.18l.126-55.257-56.928-.306A11.47,11.47,0,0,0,.848,52.857L0,106.561a4.6,4.6,0,0,0,4.619,4.673l29.186-.126a9.048,9.048,0,0,0,9.009-8.925l.062-4.511-29.55-.184L12.8,55.436l43.3-.347-.557,102.443,7.981-.678a6.118,6.118,0,0,0,5.6-6.1l.035-39.583c.052,0,.1.008.156.008l20.086.039v.031l1.04-.029,12.172.024a2.355,2.355,0,0,0,2.366-2.322c.035-2.6.021-7.573.021-12.774l.718-54.025s-6.5-2.3-12.383,5.674" transform="translate(0 -4.804)" fill="#fff"/>
    <path id="Path_895" data-name="Path 895" d="M195.771,41.568a11.471,11.471,0,0,0-11.53,11.29l-.848,53.7a4.6,4.6,0,0,0,4.619,4.673l29.185-.125a9.05,9.05,0,0,0,9.01-8.926l.062-4.511-29.551-.184-.53-42.053,43.3-.346-.557,102.443,7.98-.678a6.119,6.119,0,0,0,5.6-6.1l.19-108.882Z" transform="translate(-21.193 -4.804)" fill="#fff"/>
    <path id="Path_896" data-name="Path 896" d="M30.447,181.528q-.068.238-2.344,5.788t-4.76,12.02l-.035,0q-1.888-4.943-4.082-10.842t-2.262-6.149h-.986q-.066.223-2.336,5.791T8.969,199.442l-.034,0q-2.3-6.229-4.581-11.969T2,181.528l-1.251.415q3.24,8.1,5.385,13.685t2.278,6.017h.936q.135-.325,2.438-5.928t4.592-11.065h.033q2.538,6.616,4.425,11.664t1.971,5.329h.919q.1-.281,2.655-6.727t5.277-13Z" transform="translate(-0.087 -20.977)" fill="#1f582f"/>
    <path id="Path_897" data-name="Path 897" d="M30.447,181.528q-.068.238-2.344,5.788t-4.76,12.02l-.035,0q-1.888-4.943-4.082-10.842t-2.262-6.149h-.986q-.066.223-2.336,5.791T8.969,199.442l-.034,0q-2.3-6.229-4.581-11.969T2,181.528l-1.251.415q3.24,8.1,5.385,13.685t2.278,6.017h.936q.135-.325,2.438-5.928t4.592-11.065h.033q2.538,6.616,4.425,11.664t1.971,5.329h.919q.1-.281,2.655-6.727t5.277-13Z" transform="translate(-0.087 -20.977)" fill="none" stroke="#205930" stroke-miterlimit="10" stroke-width="1"/>
    <path id="Path_898" data-name="Path 898" d="M75.812,193.142H65.835l.008-.016q.968-1.924,2.369-4.735t2.588-5.152l.034-.006q1.08,2.117,2.494,4.924t2.477,4.969Zm1.007-.812q-3.784-7.449-5.4-10.735H70.45q-2.355,4.675-5.97,11.72t-4.167,8.108l1.144.452q.32-.606,1.376-2.746t2.534-5.055H76.282q1.581,3.11,2.472,4.922t1.461,2.909l1.222-.481q-.837-1.641-4.618-9.093" transform="translate(-6.97 -20.985)" fill="#1f582f"/>
    <path id="Path_899" data-name="Path 899" d="M75.812,193.142H65.835l.008-.016q.968-1.924,2.369-4.735t2.588-5.152l.034-.006q1.08,2.117,2.494,4.924t2.477,4.969Zm1.007-.812q-3.784-7.449-5.4-10.735H70.45q-2.355,4.675-5.97,11.72t-4.167,8.108l1.144.452q.32-.606,1.376-2.746t2.534-5.055H76.282q1.581,3.11,2.472,4.922t1.461,2.909l1.222-.481Q80.6,199.782,76.819,192.33Z" transform="translate(-6.97 -20.985)" fill="none" stroke="#205930" stroke-miterlimit="10" stroke-width="1"/>
    <path id="Path_900" data-name="Path 900" d="M125.452,181.813l-2.746.007q-2.53.008-6.32.008-2.6,0-4.91-.008t-3.907-.007v.991l2.572-.006q2.371-.008,5.694-.008,0,3.152.017,5.2t.017,4.619q0,2.619-.017,5.358t-.017,3.626h1.336q0-.888-.018-3.573t-.015-5.293q0-2.708.015-4.8t.018-5.129q3.741,0,5.886.008l2.4.006Z" transform="translate(-12.431 -21.01)" fill="#1f582f"/>
    <path id="Path_901" data-name="Path 901" d="M125.452,181.813l-2.746.007q-2.53.008-6.32.008-2.6,0-4.91-.008t-3.907-.007v.991l2.572-.006q2.371-.008,5.694-.008,0,3.152.017,5.2t.017,4.619q0,2.619-.017,5.358t-.017,3.626h1.336q0-.888-.018-3.573t-.015-5.293q0-2.708.015-4.8t.018-5.129q3.741,0,5.886.008l2.4.006Z" transform="translate(-12.431 -21.01)" fill="none" stroke="#205930" stroke-miterlimit="10" stroke-width="1"/>
    <path id="Path_902" data-name="Path 902" d="M172.971,197.424q-.016-3.242-.017-6.321,0-1.434.017-3.611t.017-5.728h-1.336q0,1.45.017,3.965t.016,5.078l-2.939.008q-2.538.007-4.324.006-2.656,0-5.077-.006l-2.671-.008q0-2.724.016-5.085t.019-3.959h-1.337q0,2.5.017,4.891t.017,4.064q0,5.329-.017,7.793t-.017,3.072h1.337q0-.813-.019-3.922t-.016-5.861l3-.009q2.73-.007,4.717-.006,1.352,0,4.141.006l3.156.009q0,5.343-.016,7.268t-.017,2.515h1.336q0-.918-.017-4.159" transform="translate(-17.955 -21.005)" fill="#1f582f"/>
    <path id="Path_903" data-name="Path 903" d="M172.971,197.424q-.016-3.242-.017-6.321,0-1.434.017-3.611t.017-5.728h-1.336q0,1.45.017,3.965t.016,5.078l-2.939.008q-2.538.007-4.324.006-2.656,0-5.077-.006l-2.671-.008q0-2.724.016-5.085t.019-3.959h-1.337q0,2.5.017,4.891t.017,4.064q0,5.329-.017,7.793t-.017,3.072h1.337q0-.813-.019-3.922t-.016-5.861l3-.009q2.73-.007,4.717-.006,1.352,0,4.141.006l3.156.009q0,5.343-.016,7.268t-.017,2.515h1.336Q172.988,200.665,172.971,197.424Z" transform="translate(-17.955 -21.005)" fill="none" stroke="#205930" stroke-miterlimit="10" stroke-width="1"/>
    <path id="Path_904" data-name="Path 904" d="M208.345,198.229q-.016-2.465-.017-6.963,0-1.778.017-4.582t.017-4.922h-1.336q0,2.945.016,5.685t.017,4.426q0,4.262-.017,6.542t-.016,3.168h1.336q0-.89-.017-3.354" transform="translate(-23.924 -21.004)" fill="#1f582f"/>
    <path id="Path_905" data-name="Path 905" d="M208.345,198.229q-.016-2.465-.017-6.963,0-1.778.017-4.582t.017-4.922h-1.336q0,2.945.016,5.685t.017,4.426q0,4.262-.017,6.542t-.016,3.168h1.336Q208.361,200.693,208.345,198.229Z" transform="translate(-23.924 -21.004)" fill="none" stroke="#205930" stroke-miterlimit="10" stroke-width="1"/>
    <path id="Path_906" data-name="Path 906" d="M252.267,198.641q2.18,2.274,5.569,5.692l.784-.733q-3.088-3.183-5.443-5.7t-3.172-3.449l-1.018.761q1.1,1.156,3.28,3.426m4.107-2.737a10.076,10.076,0,0,1-2.4,3.226,7.184,7.184,0,0,1-2.553,1.51,9.545,9.545,0,0,1-3.09.489,9.122,9.122,0,0,1-3.139-.54,7.638,7.638,0,0,1-2.6-1.577,9.2,9.2,0,0,1-2.322-3.264,11.375,11.375,0,0,1,.075-8.4,9.032,9.032,0,0,1,2.38-3.271,7.886,7.886,0,0,1,2.6-1.526,9.2,9.2,0,0,1,3.014-.473,9.384,9.384,0,0,1,2.972.481A7.739,7.739,0,0,1,254,184.149a9.211,9.211,0,0,1,2.321,3.214,10.054,10.054,0,0,1,.835,4.1,10.813,10.813,0,0,1-.785,4.441m-4.2,5.469a10.108,10.108,0,0,0,5.528-5.5,11.238,11.238,0,0,0,.792-4.264,11.359,11.359,0,0,0-.784-4.35,9.818,9.818,0,0,0-2.338-3.391,9.4,9.4,0,0,0-3.215-2.063,10.836,10.836,0,0,0-3.815-.643,11.064,11.064,0,0,0-3.723.62,8.786,8.786,0,0,0-3.057,1.821,10.263,10.263,0,0,0-2.588,3.589,12.364,12.364,0,0,0-.092,8.592,9.645,9.645,0,0,0,2.2,3.375,9.383,9.383,0,0,0,3.281,2.185,10.935,10.935,0,0,0,3.982.7,10.362,10.362,0,0,0,3.832-.674" transform="translate(-27.522 -20.935)" fill="#1f582f"/>
    <path id="Path_907" data-name="Path 907" d="M252.267,198.641q2.18,2.274,5.569,5.692l.784-.733q-3.088-3.183-5.443-5.7t-3.172-3.449l-1.018.761Q250.088,196.37,252.267,198.641Zm4.107-2.737a10.076,10.076,0,0,1-2.4,3.226,7.184,7.184,0,0,1-2.553,1.51,9.545,9.545,0,0,1-3.09.489,9.122,9.122,0,0,1-3.139-.54,7.638,7.638,0,0,1-2.6-1.577,9.2,9.2,0,0,1-2.322-3.264,11.375,11.375,0,0,1,.075-8.4,9.032,9.032,0,0,1,2.38-3.271,7.886,7.886,0,0,1,2.6-1.526,9.2,9.2,0,0,1,3.014-.473,9.384,9.384,0,0,1,2.972.481A7.739,7.739,0,0,1,254,184.149a9.211,9.211,0,0,1,2.321,3.214,10.054,10.054,0,0,1,.835,4.1A10.813,10.813,0,0,1,256.375,195.9Zm-4.2,5.469a10.108,10.108,0,0,0,5.528-5.5,11.238,11.238,0,0,0,.792-4.264,11.359,11.359,0,0,0-.784-4.35,9.818,9.818,0,0,0-2.338-3.391,9.4,9.4,0,0,0-3.215-2.063,10.836,10.836,0,0,0-3.815-.643,11.064,11.064,0,0,0-3.723.62,8.786,8.786,0,0,0-3.057,1.821,10.263,10.263,0,0,0-2.588,3.589,12.364,12.364,0,0,0-.092,8.592,9.645,9.645,0,0,0,2.2,3.375,9.383,9.383,0,0,0,3.281,2.185,10.935,10.935,0,0,0,3.982.7A10.362,10.362,0,0,0,252.175,201.372Z" transform="translate(-27.522 -20.935)" fill="none" stroke="#205930" stroke-miterlimit="10" stroke-width="1"/>
    <path id="Path_908" data-name="Path 908" d="M105.633,18.228,102.9,23.334a1.421,1.421,0,0,0,.024,1.383l3.406,5.863a1.418,1.418,0,0,0,1.227.707H113.2a1.419,1.419,0,0,0,1.21-.677l3.579-5.839a1.421,1.421,0,0,0,0-1.478l-3.116-5.132a1.421,1.421,0,0,0-1.213-.682h-6.777a1.417,1.417,0,0,0-1.25.749m3.606,6.833-.128-.22a1.417,1.417,0,0,1-.023-1.382l0-.01a1.419,1.419,0,0,1,1.251-.748h.223a1.418,1.418,0,0,1,1.213.682l.02.033a1.422,1.422,0,0,1,0,1.479l-.12.2a1.418,1.418,0,0,1-2.436-.029" transform="translate(-11.871 -2.02)" fill="#1f582f"/>
    <path id="Path_909" data-name="Path 909" d="M96.01,1.27,93.274,6.376A1.421,1.421,0,0,0,93.3,7.759L96.7,13.622a1.418,1.418,0,0,0,1.227.707h5.643a1.418,1.418,0,0,0,1.21-.677l3.579-5.839a1.421,1.421,0,0,0,0-1.478L105.25,1.2a1.421,1.421,0,0,0-1.213-.682H97.26a1.417,1.417,0,0,0-1.25.749M99.616,8.1l-.128-.22A1.417,1.417,0,0,1,99.465,6.5l0-.01a1.419,1.419,0,0,1,1.251-.748h.223a1.418,1.418,0,0,1,1.213.682l.02.033a1.422,1.422,0,0,1,0,1.479l-.12.2A1.418,1.418,0,0,1,99.616,8.1" transform="translate(-10.759 -0.06)" fill="#1f582f"/>
    <path id="Path_910" data-name="Path 910" d="M86.676,18.228l-2.736,5.106a1.421,1.421,0,0,0,.024,1.383l3.406,5.863a1.418,1.418,0,0,0,1.227.707h5.643a1.418,1.418,0,0,0,1.21-.677l3.579-5.839a1.421,1.421,0,0,0,0-1.478l-3.116-5.132a1.421,1.421,0,0,0-1.213-.682H87.925a1.416,1.416,0,0,0-1.25.749m3.606,6.833-.128-.22a1.417,1.417,0,0,1-.023-1.382l0-.01a1.419,1.419,0,0,1,1.251-.748h.223a1.418,1.418,0,0,1,1.213.682l.02.033a1.422,1.422,0,0,1,0,1.479l-.12.2a1.418,1.418,0,0,1-2.436-.029" transform="translate(-9.681 -2.02)" fill="#1f582f"/>
    <path id="Path_911" data-name="Path 911" d="M21.609,18.228l-2.736,5.106a1.423,1.423,0,0,0,.024,1.383L22.3,30.58a1.419,1.419,0,0,0,1.228.707h5.642a1.418,1.418,0,0,0,1.21-.677l3.579-5.839a1.419,1.419,0,0,0,0-1.478l-3.116-5.132a1.42,1.42,0,0,0-1.213-.682H22.858a1.417,1.417,0,0,0-1.25.749m3.607,6.833-.129-.22a1.419,1.419,0,0,1-.023-1.382l0-.01a1.419,1.419,0,0,1,1.251-.748h.224a1.417,1.417,0,0,1,1.212.682l.02.033a1.42,1.42,0,0,1,0,1.479l-.12.2a1.417,1.417,0,0,1-2.435-.029" transform="translate(-2.161 -2.02)" fill="#1f582f"/>
    <path id="Path_912" data-name="Path 912" d="M3.158,18.228.421,23.334a1.421,1.421,0,0,0,.024,1.383L3.851,30.58a1.418,1.418,0,0,0,1.227.707H10.72a1.418,1.418,0,0,0,1.21-.677L15.51,24.77a1.421,1.421,0,0,0,0-1.478L12.4,18.161a1.421,1.421,0,0,0-1.213-.682H4.407a1.417,1.417,0,0,0-1.25.749m3.606,6.833-.128-.22a1.417,1.417,0,0,1-.023-1.382l0-.01A1.419,1.419,0,0,1,7.867,22.7H8.09a1.418,1.418,0,0,1,1.213.682l.02.033a1.422,1.422,0,0,1,0,1.479l-.12.2a1.418,1.418,0,0,1-2.436-.029" transform="translate(-0.029 -2.02)" fill="#1f582f"/>
    <path id="Path_913" data-name="Path 913" d="M306.256,123.671l-2.454-4.089a2.245,2.245,0,0,0-1.924-1.095H296.4a2.248,2.248,0,0,0-1.984,1.2l-2.143,4.05a2.3,2.3,0,0,0,.037,2.219l2.766,4.821a2.246,2.246,0,0,0,1.947,1.134h4.415a2.247,2.247,0,0,0,1.919-1.087l2.9-4.783a2.3,2.3,0,0,0,.005-2.371" transform="translate(-33.744 -13.692)" fill="#51595d"/>
    <path id="Path_914" data-name="Path 914" d="M339.195,143.275l-2.216-3.692a2.635,2.635,0,0,0-2.258-1.286h-5.028a2.634,2.634,0,0,0-2.327,1.41l-1.932,3.647a2.7,2.7,0,0,0,.046,2.6l2.544,4.435a2.635,2.635,0,0,0,2.283,1.331h3.973a2.635,2.635,0,0,0,2.252-1.276l2.659-4.39a2.7,2.7,0,0,0,.006-2.782" transform="translate(-37.571 -15.982)" fill="#51595d"/>
    <path id="Path_915" data-name="Path 915" d="M368.2,163.471l-1.455-2.425a3.1,3.1,0,0,0-2.66-1.514H360.61a3.109,3.109,0,0,0-2.743,1.662l-2.074,3.919,2.645,4.612a3.105,3.105,0,0,0,2.691,1.567H363.7a3.1,3.1,0,0,0,2.652-1.5l1.841-3.039a3.18,3.18,0,0,0,.007-3.28" transform="translate(-41.115 -18.436)" fill="#51595d"/>
    <path id="Path_916" data-name="Path 916" d="M388.554,141.074l-3.744,7.068a1.987,1.987,0,0,0,.032,1.914l4.66,8.117a1.936,1.936,0,0,0,1.679.977h7.72a1.938,1.938,0,0,0,1.655-.938l4.9-8.083a1.984,1.984,0,0,0,.005-2.046l-4.263-7.1a1.936,1.936,0,0,0-1.658-.945h-9.273a1.935,1.935,0,0,0-1.71,1.037m4.933,9.459-.174-.305a1.982,1.982,0,0,1-.033-1.913l.006-.012A1.939,1.939,0,0,1,395,147.267h.3a1.937,1.937,0,0,1,1.659.944l.026.046a1.988,1.988,0,0,1,0,2.047l-.165.27a1.928,1.928,0,0,1-3.332-.04" transform="translate(-44.442 -16.183)" fill="#9cabb3"/>
    <path id="Path_917" data-name="Path 917" d="M355.244,121.263l-3.744,7.07a1.987,1.987,0,0,0,.032,1.912l4.66,8.118a1.937,1.937,0,0,0,1.679.977h7.721a1.935,1.935,0,0,0,1.655-.937l4.9-8.084a1.983,1.983,0,0,0,0-2.045l-4.262-7.1a1.938,1.938,0,0,0-1.658-.945h-9.273a1.937,1.937,0,0,0-1.71,1.036m4.933,9.461-.175-.305a1.979,1.979,0,0,1-.033-1.913l.006-.012a1.942,1.942,0,0,1,1.711-1.037h.3a1.938,1.938,0,0,1,1.66.946l.027.046a1.985,1.985,0,0,1,0,2.045l-.165.272a1.929,1.929,0,0,1-3.333-.04" transform="translate(-40.593 -13.894)" fill="#9cabb3"/>
    <path id="Path_918" data-name="Path 918" d="M322.8,102.354l-3.744,7.069a1.987,1.987,0,0,0,.032,1.913l4.66,8.118a1.937,1.937,0,0,0,1.678.977h7.721a1.937,1.937,0,0,0,1.655-.938l4.9-8.084a1.983,1.983,0,0,0,0-2.046l-4.262-7.1a1.935,1.935,0,0,0-1.657-.945H324.51a1.934,1.934,0,0,0-1.71,1.037m4.932,9.46-.174-.305a1.979,1.979,0,0,1-.033-1.913l.006-.012a1.939,1.939,0,0,1,1.711-1.037h.3a1.94,1.94,0,0,1,1.659.944l.027.047a1.986,1.986,0,0,1,0,2.046l-.165.271a1.929,1.929,0,0,1-3.332-.04" transform="translate(-36.844 -11.708)" fill="#9cabb3"/>
    <path id="Path_919" data-name="Path 919" d="M289.744,82.543,286,89.613a1.988,1.988,0,0,0,.033,1.912l4.659,8.117a1.936,1.936,0,0,0,1.679.978h7.721a1.937,1.937,0,0,0,1.655-.937l4.9-8.085a1.985,1.985,0,0,0,.005-2.046l-4.263-7.1a1.937,1.937,0,0,0-1.657-.945h-9.273a1.937,1.937,0,0,0-1.711,1.037M294.677,92,294.5,91.7a1.982,1.982,0,0,1-.032-1.914l.006-.012a1.94,1.94,0,0,1,1.71-1.037h.305a1.937,1.937,0,0,1,1.659.945l.027.047a1.982,1.982,0,0,1,0,2.045l-.164.272a1.929,1.929,0,0,1-3.333-.04" transform="translate(-33.024 -9.419)" fill="#9cabb3"/>
    <path id="Path_920" data-name="Path 920" d="M418.83,80.558,414.3,89.115a2.641,2.641,0,0,0,.043,2.547l5.66,9.863a2.579,2.579,0,0,0,2.236,1.3h9.345a2.577,2.577,0,0,0,2.2-1.249l5.947-9.818a2.642,2.642,0,0,0,.006-2.724l-5.161-8.6a2.579,2.579,0,0,0-2.21-1.259H421.108a2.579,2.579,0,0,0-2.278,1.381m2.728,10.2L424,86.148h5.856l2.766,4.608-3.091,5.1h-5.042Z" transform="translate(-47.841 -9.15)" fill="#1f582f"/>
    <path id="Path_921" data-name="Path 921" d="M386.519,61.231l-4.872,9.2a2,2,0,0,0,.033,1.931L387.7,82.85a1.953,1.953,0,0,0,1.694.988h10.058a1.957,1.957,0,0,0,1.67-.947l6.33-10.45a2.006,2.006,0,0,0,0-2.064l-5.542-9.237a1.957,1.957,0,0,0-1.675-.954H388.246a1.957,1.957,0,0,0-1.727,1.046m2.552,10.533,2.439-4.608h5.857l2.766,4.608-3.093,5.1H392Z" transform="translate(-44.076 -6.955)" fill="#1f582f"/>
    <path id="Path_922" data-name="Path 922" d="M353.971,42.168,349.3,50.991a2.383,2.383,0,0,0,.039,2.3L355.145,63.4a2.323,2.323,0,0,0,2.013,1.173H366.8a2.321,2.321,0,0,0,1.984-1.125l6.1-10.077a2.375,2.375,0,0,0,.005-2.453l-5.317-8.863a2.325,2.325,0,0,0-1.99-1.134h-11.56a2.325,2.325,0,0,0-2.052,1.244M356.626,52.5l2.439-4.608h5.857l2.766,4.608-3.093,5.1h-5.041Z" transform="translate(-40.333 -4.729)" fill="#1f582f"/>
    <path id="Path_923" data-name="Path 923" d="M320.387,22.1l-4.672,8.822a2.383,2.383,0,0,0,.039,2.3l5.806,10.118a2.323,2.323,0,0,0,2.013,1.173h9.638a2.323,2.323,0,0,0,1.985-1.125l6.1-10.077a2.375,2.375,0,0,0,.006-2.453l-5.318-8.863A2.327,2.327,0,0,0,334,20.857H322.439a2.325,2.325,0,0,0-2.052,1.244m2.655,10.335,2.439-4.608h5.857l2.766,4.608-3.093,5.1H325.97Z" transform="translate(-36.452 -2.41)" fill="#1f582f"/>
    <path id="Path_924" data-name="Path 924" d="M384.953,21.768l-3.961,7.482a5.219,5.219,0,0,0,.085,5.032l5.194,9.05a5.094,5.094,0,0,0,4.413,2.572h8.153a5.088,5.088,0,0,0,4.351-2.466l5.43-8.963a5.221,5.221,0,0,0,.012-5.377l-4.545-7.572a5.088,5.088,0,0,0-4.361-2.484H389.452a5.1,5.1,0,0,0-4.5,2.726m2.755,10.382,3.193-6.031h7.664l3.618,6.031-4.045,6.677h-6.6Z" transform="translate(-43.957 -2.201)" fill="#234a2c"/>
    <path id="Path_925" data-name="Path 925" d="M352.6,2.981l-3.961,7.483a5.215,5.215,0,0,0,.085,5.031l5.194,9.05a5.093,5.093,0,0,0,4.413,2.572h8.153a5.088,5.088,0,0,0,4.35-2.466l5.43-8.962a5.212,5.212,0,0,0,.011-5.378L371.727,2.74A5.089,5.089,0,0,0,367.365.257H357.094a5.1,5.1,0,0,0-4.5,2.724m2.755,10.382,3.193-6.031h7.664l3.618,6.031-4.045,6.678h-6.6Z" transform="translate(-40.218 -0.03)" fill="#234a2c"/>
    <path id="Path_926" data-name="Path 926" d="M418.062,41.836,414.1,49.318a5.222,5.222,0,0,0,.084,5.032l5.194,9.05a5.094,5.094,0,0,0,4.413,2.571h8.154a5.085,5.085,0,0,0,4.35-2.465l5.43-8.963a5.218,5.218,0,0,0,.011-5.377l-4.543-7.572a5.087,5.087,0,0,0-4.362-2.484H422.56a5.1,5.1,0,0,0-4.5,2.726m2.756,10.382,3.192-6.031h7.663l3.62,6.031-4.044,6.678h-6.6Z" transform="translate(-47.783 -4.52)" fill="#78c3a6"/>
    <path id="Path_927" data-name="Path 927" d="M418.34,41.836l-3.962,7.482a5.217,5.217,0,0,0,.085,5.032l5.194,9.05a5.093,5.093,0,0,0,4.413,2.571h8.153a5.086,5.086,0,0,0,4.35-2.465L442,54.543a5.217,5.217,0,0,0,.011-5.377l-4.545-7.572a5.084,5.084,0,0,0-4.36-2.484H422.838a5.1,5.1,0,0,0-4.5,2.726m2.753,10.382,3.194-6.031h7.664l3.618,6.031-4.045,6.678h-6.6Z" transform="translate(-47.816 -4.52)" fill="#234a2c"/>
    <path id="Path_928" data-name="Path 928" d="M387.19,100.926l-4.2,7.926a2.578,2.578,0,0,0,.042,2.49l5.253,9.156a2.52,2.52,0,0,0,2.184,1.272h8.657a2.521,2.521,0,0,0,2.154-1.219l5.518-9.113a2.577,2.577,0,0,0,.006-2.66l-4.784-7.971a2.517,2.517,0,0,0-2.159-1.228H389.416a2.519,2.519,0,0,0-2.226,1.349m3.1,9.356,1.846-3.484h4.426l2.092,3.484-2.337,3.857H392.5Z" transform="translate(-44.224 -11.507)" fill="#adbcc3"/>
    <path id="Path_929" data-name="Path 929" d="M419.943,119.836l-4.2,7.926a2.579,2.579,0,0,0,.041,2.491l5.253,9.155a2.52,2.52,0,0,0,2.184,1.272h8.657a2.522,2.522,0,0,0,2.154-1.219l5.518-9.113a2.577,2.577,0,0,0,.006-2.66l-4.783-7.971a2.521,2.521,0,0,0-2.16-1.228H422.168a2.516,2.516,0,0,0-2.225,1.349m3.1,9.356,1.846-3.484h4.426l2.092,3.484-2.337,3.857h-3.813Z" transform="translate(-48.009 -13.692)" fill="#adbcc3"/>
    <path id="Path_930" data-name="Path 930" d="M353.788,81.207l-4.344,8.206a2.3,2.3,0,0,0,.038,2.223l5.407,9.424a2.248,2.248,0,0,0,1.95,1.136H365.8a2.248,2.248,0,0,0,1.923-1.089l5.685-9.385a2.3,2.3,0,0,0,0-2.376L368.467,81.1a2.25,2.25,0,0,0-1.926-1.1H355.775a2.252,2.252,0,0,0-1.987,1.2m3.022,9.5,1.846-3.483h4.427l2.091,3.483-2.338,3.859h-3.813Z" transform="translate(-40.351 -9.245)" fill="#adbcc3"/>
    <path id="Path_931" data-name="Path 931" d="M321.567,61.874,317.1,70.308a2.074,2.074,0,0,0,.034,2.006l5.533,9.641a2.027,2.027,0,0,0,1.76,1.025h9.214A2.033,2.033,0,0,0,335.377,82l5.82-9.609a2.078,2.078,0,0,0,0-2.143l-5.082-8.468a2.031,2.031,0,0,0-1.739-.991H323.36a2.029,2.029,0,0,0-1.793,1.086m2.958,9.618,1.845-3.484H330.8l2.091,3.484-2.336,3.858h-3.814Z" transform="translate(-36.616 -7.025)" fill="#adbcc3"/>
    <path id="Path_932" data-name="Path 932" d="M288.4,42.232l-4.238,8.007a2.5,2.5,0,0,0,.041,2.415l5.3,9.231a2.446,2.446,0,0,0,2.118,1.233h8.744a2.446,2.446,0,0,0,2.089-1.182l5.565-9.189a2.5,2.5,0,0,0,0-2.582l-4.828-8.048a2.445,2.445,0,0,0-2.093-1.192H290.56a2.447,2.447,0,0,0-2.16,1.307m3.077,9.4,1.846-3.485h4.427l2.091,3.485L297.5,55.487H293.69Z" transform="translate(-32.804 -4.729)" fill="#adbcc3"/>
  </g>
</svg>
