<svg xmlns="http://www.w3.org/2000/svg" width="515.551" height="240.099" viewBox="0 0 515.551 240.099">
  <g id="Group_798" data-name="Group 798" transform="translate(-1784.909 -12.25)">
    <path id="Path_650" data-name="Path 650" d="M1820.231,21.113s-4.979,4.357-4.984,14.925l-.846,175.6,7.337-.2c8.731-.241,10.893-7.376,10.91-16.107l1.137-182.623S1828.946,9.3,1820.231,21.113Z" transform="translate(135.68)" fill="#fff"/>
    <path id="Path_651" data-name="Path 651" d="M1906.74,28.952s-4.391,3.842-4.4,13.15l-.561,51.272c-2.3.006-4.508-.022-6.373-.022h-20.194l.167-72.133-74.317-.4a14.971,14.971,0,0,0-15.047,14.735l-1.109,70.106a6,6,0,0,0,6.031,6.1l38.1-.162A11.816,11.816,0,0,0,1840.8,99.948l.078-5.892-38.575-.241-.689-54.9,56.515-.448-.723,133.726,10.416-.885a7.99,7.99,0,0,0,7.31-7.958l.05-51.675c.067,0,.135.011.2.011l26.222.05v.039l1.355-.034,15.888.028a3.078,3.078,0,0,0,3.092-3.03c.045-3.4.022-9.885.022-16.672l.94-70.526S1914.412,18.541,1906.74,28.952Z" transform="translate(0 39.423)" fill="#fff"/>
    <path id="Path_652" data-name="Path 652" d="M1838.873,20.82a14.972,14.972,0,0,0-15.048,14.735l-1.109,70.106a6,6,0,0,0,6.032,6.1l38.094-.162a11.817,11.817,0,0,0,11.767-11.649l.078-5.892-38.575-.241-.689-54.9,56.515-.448-.723,133.726,10.416-.885a7.99,7.99,0,0,0,7.31-7.958l.251-142.138Z" transform="translate(173.927 39.423)" fill="#fff"/>
    <g id="Group_670" data-name="Group 670" transform="translate(1785.772 221.406)">
      <path id="Path_653" data-name="Path 653" d="M1823.835,49.673q-.092.311-3.063,7.555t-6.211,15.692l-.045-.006q-2.47-6.452-5.331-14.152t-2.951-8.025h-1.288q-.085.286-3.047,7.561t-6.1,14.763h-.044q-3-8.132-5.981-15.625t-3.075-7.762l-1.635.543q4.233,10.568,7.034,17.86t2.974,7.857h1.221q.177-.428,3.181-7.74t6-14.443h.039q3.318,8.636,5.779,15.227t2.57,6.956h1.2q.136-.37,3.467-8.781t6.889-16.975Z" transform="translate(-1785.063 -49.247)" fill="#fff" stroke="#186b40" stroke-miterlimit="10" stroke-width="1"/>
      <path id="Path_654" data-name="Path 654" d="M1817.571,64.758h-13.021l.011-.022q1.261-2.512,3.092-6.177c1.221-2.453,2.347-4.688,3.377-6.726l.045-.011q1.412,2.764,3.254,6.429c1.231,2.442,2.313,4.609,3.237,6.485Zm1.316-1.058q-4.939-9.728-7.051-14.012h-1.26q-3.075,6.1-7.8,15.295t-5.438,10.585l1.49.594q.42-.8,1.8-3.584t3.31-6.6h14.247c1.378,2.7,2.447,4.85,3.226,6.424s1.411,2.845,1.91,3.8l1.591-.633Q1823.83,73.424,1818.888,63.7Z" transform="translate(-1728.57 -49.183)" fill="#fff" stroke="#186b40" stroke-miterlimit="10" stroke-width="1"/>
      <path id="Path_655" data-name="Path 655" d="M1830.428,49.732c-.191,0-1.384,0-3.585.006s-4.95.011-8.249.011c-2.269,0-4.407,0-6.407-.011s-3.707-.006-5.1-.006v1.294c.173,0,1.294-.006,3.354-.011s4.542-.011,7.432-.011q0,4.116.022,6.782c.017,1.781.022,3.786.022,6.032q0,3.419-.022,6.995t-.022,4.732h1.747c0-.773-.011-2.33-.022-4.665s-.022-4.643-.022-6.911c0-2.352.006-4.447.022-6.267s.022-4.055.022-6.7q4.882,0,7.684.011c1.865.006,2.907.011,3.126.011Z" transform="translate(-1683.753 -48.976)" fill="#fff" stroke="#186b40" stroke-miterlimit="10" stroke-width="1"/>
      <path id="Path_656" data-name="Path 656" d="M1839.917,70.168q-.025-4.234-.022-8.255c0-1.249.006-2.817.022-4.716s.023-4.385.023-7.477h-1.748c0,1.266.011,2.991.022,5.18s.022,4.4.022,6.625q-.52,0-3.836.011t-5.646.011q-3.469,0-6.625-.011c-2.111-.006-3.271-.011-3.489-.011q0-3.553.022-6.636c.017-2.055.022-3.775.022-5.169h-1.748c0,2.179.012,4.307.023,6.39s.022,3.847.022,5.3q0,6.956-.022,10.17c-.012,2.145-.023,3.483-.023,4.01h1.748q0-1.058-.022-5.119t-.022-7.65c.235,0,1.534-.006,3.915-.011s4.424-.011,6.154-.011q1.764,0,5.4.011l4.122.011q0,6.972-.022,9.487c-.012,1.674-.022,2.767-.022,3.282h1.748C1839.94,74.794,1839.929,72.985,1839.917,70.168Z" transform="translate(-1638.42 -49.027)" fill="#fff" stroke="#186b40" stroke-miterlimit="10" stroke-width="1"/>
      <path id="Path_657" data-name="Path 657" d="M1829.307,71.221c-.012-2.145-.022-5.18-.022-9.089q0-2.327.022-5.981t.022-6.429h-1.741q0,3.847.022,7.421c.017,2.386.021,4.307.021,5.78q0,5.561-.021,8.541c-.018,1.983-.022,3.36-.022,4.133h1.741Q1829.329,74.436,1829.307,71.221Z" transform="translate(-1589.431 -49.027)" fill="#fff" stroke="#186b40" stroke-miterlimit="10" stroke-width="1"/>
      <path id="Path_658" data-name="Path 658" d="M1852.427,72.419q2.839,2.965,7.269,7.426l1.025-.952q-4.033-4.158-7.107-7.443t-4.145-4.5l-1.327.991Q1849.579,69.456,1852.427,72.419Zm5.358-3.573a13.3,13.3,0,0,1-3.136,4.211,9.464,9.464,0,0,1-3.338,1.971,12.415,12.415,0,0,1-4.032.638,11.87,11.87,0,0,1-4.094-.706,10.072,10.072,0,0,1-3.405-2.061,12.046,12.046,0,0,1-3.03-4.262,14.813,14.813,0,0,1,.1-10.966,11.772,11.772,0,0,1,3.108-4.267,10.282,10.282,0,0,1,3.388-1.994,12.106,12.106,0,0,1,3.932-.616,12.238,12.238,0,0,1,3.881.627,10.073,10.073,0,0,1,3.534,2.078,12.046,12.046,0,0,1,3.029,4.195,13.182,13.182,0,0,1,1.087,5.354A14.136,14.136,0,0,1,1857.785,68.846ZM1852.3,75.98a13.188,13.188,0,0,0,7.219-7.174,15.941,15.941,0,0,0,.012-11.246,12.811,12.811,0,0,0-3.052-4.43,12.331,12.331,0,0,0-4.2-2.694,14.168,14.168,0,0,0-4.979-.84,14.4,14.4,0,0,0-4.861.812,11.527,11.527,0,0,0-3.987,2.375,13.343,13.343,0,0,0-3.377,4.688,16.112,16.112,0,0,0-.123,11.218,12.612,12.612,0,0,0,2.867,4.408,12.279,12.279,0,0,0,4.284,2.851,14.271,14.271,0,0,0,5.2.913A13.528,13.528,0,0,0,1852.3,75.98Z" transform="translate(-1559.906 -49.597)" fill="#fff" stroke="#186b40" stroke-miterlimit="10" stroke-width="1"/>
    </g>
    <path id="Path_659" data-name="Path 659" d="M1809.879,16.828l-3.573,6.67a1.849,1.849,0,0,0,.033,1.8l4.442,7.656a1.857,1.857,0,0,0,1.6.918h7.369a1.846,1.846,0,0,0,1.579-.885L1826,25.369a1.847,1.847,0,0,0,.006-1.927l-4.071-6.7a1.839,1.839,0,0,0-1.579-.89h-8.849a1.846,1.846,0,0,0-1.63.974m4.7,8.921-.168-.286a1.862,1.862,0,0,1-.028-1.8l.006-.011a1.847,1.847,0,0,1,1.63-.98h.291a1.848,1.848,0,0,1,1.585.89l.028.045a1.847,1.847,0,0,1-.006,1.927l-.156.258a1.852,1.852,0,0,1-3.182-.039" transform="translate(97.427 16.578)" fill="#fff"/>
    <path id="Path_660" data-name="Path 660" d="M1807.895,13.332,1804.321,20a1.849,1.849,0,0,0,.033,1.8l4.447,7.656a1.845,1.845,0,0,0,1.6.918h7.364a1.839,1.839,0,0,0,1.579-.885l4.672-7.622a1.852,1.852,0,0,0,.006-1.927l-4.066-6.7a1.849,1.849,0,0,0-1.585-.89h-8.843a1.862,1.862,0,0,0-1.636.974m4.71,8.921-.168-.286a1.847,1.847,0,0,1-.034-1.8l.007-.011a1.853,1.853,0,0,1,1.635-.98h.291a1.841,1.841,0,0,1,1.58.89l.027.045a1.847,1.847,0,0,1-.006,1.927l-.156.258a1.846,1.846,0,0,1-3.176-.039" transform="translate(88.3 0.495)" fill="#fff"/>
    <path id="Path_661" data-name="Path 661" d="M1805.971,16.828,1802.4,23.5a1.842,1.842,0,0,0,.033,1.8l4.44,7.656a1.859,1.859,0,0,0,1.6.918h7.37a1.849,1.849,0,0,0,1.579-.885l4.671-7.622a1.845,1.845,0,0,0,0-1.927l-4.07-6.7a1.841,1.841,0,0,0-1.58-.89H1807.6a1.847,1.847,0,0,0-1.63.974m4.705,8.921-.168-.286a1.859,1.859,0,0,1-.028-1.8l.006-.011a1.845,1.845,0,0,1,1.629-.98h.292a1.846,1.846,0,0,1,1.584.89l.028.045a1.843,1.843,0,0,1-.006,1.927l-.156.258a1.851,1.851,0,0,1-3.181-.039" transform="translate(79.449 16.578)" fill="#fff"/>
    <path id="Path_662" data-name="Path 662" d="M1792.558,16.828l-3.573,6.67a1.842,1.842,0,0,0,.034,1.8l4.446,7.656a1.857,1.857,0,0,0,1.6.918h7.364a1.844,1.844,0,0,0,1.58-.885l4.67-7.622a1.847,1.847,0,0,0,.006-1.927l-4.066-6.7a1.849,1.849,0,0,0-1.585-.89h-8.848a1.858,1.858,0,0,0-1.63.974m4.709,8.921-.167-.286a1.844,1.844,0,0,1-.034-1.8l.006-.011a1.856,1.856,0,0,1,1.636-.98H1799a1.841,1.841,0,0,1,1.579.89l.028.045a1.847,1.847,0,0,1-.006,1.927l-.157.258a1.846,1.846,0,0,1-3.176-.039" transform="translate(17.738 16.578)" fill="#fff"/>
    <path id="Path_663" data-name="Path 663" d="M1788.752,16.828l-3.567,6.67a1.832,1.832,0,0,0,.028,1.8l4.447,7.656a1.857,1.857,0,0,0,1.6.918h7.364a1.841,1.841,0,0,0,1.579-.885l4.671-7.622a1.845,1.845,0,0,0,0-1.927l-4.065-6.7a1.849,1.849,0,0,0-1.585-.89h-8.843a1.862,1.862,0,0,0-1.636.974m4.71,8.921-.168-.286a1.847,1.847,0,0,1-.033-1.8l.011-.011a1.841,1.841,0,0,1,1.63-.98h.291a1.858,1.858,0,0,1,1.586.89l.021.045a1.845,1.845,0,0,1,0,1.927l-.156.258a1.852,1.852,0,0,1-3.182-.039" transform="translate(0.24 16.578)" fill="#fff"/>
    <g id="Group_671" data-name="Group 671" transform="translate(2112.65 12.545)">
      <path id="Path_664" data-name="Path 664" d="M1861.96,18.4" transform="translate(-1758.185 15.723)" fill="#fff"/>
      <path id="Path_665" data-name="Path 665" d="M1863.712,43.442l-3.2-5.337A2.951,2.951,0,0,0,1858,36.677h-7.157a2.935,2.935,0,0,0-2.587,1.568l-2.8,5.287a2.99,2.99,0,0,0,.051,2.9l3.612,6.295a2.941,2.941,0,0,0,2.543,1.479h5.763a2.932,2.932,0,0,0,2.5-1.417l3.78-6.244a3,3,0,0,0,.006-3.1" transform="translate(-1835.721 99.827)" fill="#fff"/>
      <path id="Path_666" data-name="Path 666" d="M1870.3,47.257l-2.89-4.816a3.445,3.445,0,0,0-2.951-1.68H1857.9a3.434,3.434,0,0,0-3.035,1.837l-2.526,4.76a3.543,3.543,0,0,0,.062,3.4l3.321,5.791a3.438,3.438,0,0,0,2.979,1.736h5.186a3.45,3.45,0,0,0,2.94-1.663l3.473-5.729a3.529,3.529,0,0,0,0-3.635" transform="translate(-1804.309 118.615)" fill="#fff"/>
      <path id="Path_667" data-name="Path 667" d="M1874.459,50.285l-1.9-3.17a4.05,4.05,0,0,0-3.474-1.977h-4.535a4.061,4.061,0,0,0-3.585,2.173l-2.705,5.113,3.456,6.02a4.047,4.047,0,0,0,3.511,2.05h3.36a4.049,4.049,0,0,0,3.461-1.966l2.4-3.965a4.145,4.145,0,0,0,.012-4.279" transform="translate(-1775.22 138.751)" fill="#fff"/>
      <path id="Path_668" data-name="Path 668" d="M1869.381,42.474l-4.89,9.229a2.6,2.6,0,0,0,.039,2.5l6.088,10.6a2.523,2.523,0,0,0,2.19,1.277h10.075a2.522,2.522,0,0,0,2.161-1.227l6.391-10.551a2.6,2.6,0,0,0,.011-2.671l-5.567-9.269a2.527,2.527,0,0,0-2.161-1.238h-12.108a2.516,2.516,0,0,0-2.229,1.355m6.435,12.349-.224-.4a2.587,2.587,0,0,1-.045-2.5l.011-.017a2.528,2.528,0,0,1,2.229-1.35h.4a2.528,2.528,0,0,1,2.168,1.232l.033.056a2.6,2.6,0,0,1,0,2.671l-.219.353a2.517,2.517,0,0,1-4.352-.05" transform="translate(-1747.92 120.262)" fill="#fff"/>
      <path id="Path_669" data-name="Path 669" d="M1862.508,38.39l-4.883,9.229a2.6,2.6,0,0,0,.039,2.5l6.088,10.6a2.522,2.522,0,0,0,2.189,1.277h10.075a2.524,2.524,0,0,0,2.161-1.227l6.4-10.551a2.6,2.6,0,0,0,0-2.671l-5.561-9.269a2.526,2.526,0,0,0-2.167-1.238h-12.1a2.532,2.532,0,0,0-2.235,1.355m6.44,12.349-.224-.4a2.587,2.587,0,0,1-.045-2.5l.006-.017a2.548,2.548,0,0,1,2.234-1.355h.4a2.522,2.522,0,0,1,2.167,1.238l.034.056a2.6,2.6,0,0,1,0,2.671l-.219.353a2.517,2.517,0,0,1-4.352-.05" transform="translate(-1779.51 101.474)" fill="#fff"/>
      <path id="Path_670" data-name="Path 670" d="M1855.821,34.492l-4.884,9.224a2.589,2.589,0,0,0,.039,2.5l6.082,10.6a2.525,2.525,0,0,0,2.189,1.271h10.081a2.52,2.52,0,0,0,2.162-1.221l6.39-10.551a2.588,2.588,0,0,0,.006-2.671l-5.561-9.274a2.54,2.54,0,0,0-2.168-1.232h-12.1a2.53,2.53,0,0,0-2.234,1.355m6.44,12.349-.229-.4a2.589,2.589,0,0,1-.04-2.5l.007-.017a2.53,2.53,0,0,1,2.233-1.355h.4a2.539,2.539,0,0,1,2.167,1.232l.033.062a2.6,2.6,0,0,1,0,2.671l-.213.353a2.517,2.517,0,0,1-4.352-.05" transform="translate(-1810.279 83.542)" fill="#fff"/>
      <path id="Path_671" data-name="Path 671" d="M1849.01,30.408l-4.89,9.229a2.576,2.576,0,0,0,.046,2.492l6.081,10.6a2.525,2.525,0,0,0,2.19,1.271h10.08a2.515,2.515,0,0,0,2.156-1.221l6.4-10.551a2.6,2.6,0,0,0,.006-2.671l-5.567-9.274a2.526,2.526,0,0,0-2.161-1.232h-12.108a2.516,2.516,0,0,0-2.229,1.355m6.44,12.349-.229-.4a2.587,2.587,0,0,1-.045-2.5l.011-.017a2.523,2.523,0,0,1,2.229-1.355h.4a2.523,2.523,0,0,1,2.162,1.232l.038.062a2.6,2.6,0,0,1,0,2.671l-.219.353a2.512,2.512,0,0,1-4.346-.05" transform="translate(-1841.629 64.754)" fill="#fff"/>
      <path id="Path_672" data-name="Path 672" d="M1876.568,30.376l-5.914,11.167a3.458,3.458,0,0,0,.056,3.327l7.393,12.875a3.36,3.36,0,0,0,2.918,1.7h12.2a3.368,3.368,0,0,0,2.879-1.63L1903.858,45a3.436,3.436,0,0,0,.006-3.556l-6.737-11.229a3.36,3.36,0,0,0-2.884-1.641h-14.7a3.372,3.372,0,0,0-2.974,1.8m3.562,13.312,3.187-6.015h7.645l3.606,6.015-4.032,6.659h-6.58Z" transform="translate(-1720.026 62.545)" fill="#fff"/>
      <path id="Path_673" data-name="Path 673" d="M1870.2,26.024l-6.362,12.013a2.6,2.6,0,0,0,.045,2.52l7.853,13.687a2.549,2.549,0,0,0,2.211,1.288h13.128a2.55,2.55,0,0,0,2.179-1.238l8.267-13.643a2.626,2.626,0,0,0,0-2.694L1890.293,25.9a2.554,2.554,0,0,0-2.189-1.243h-15.648a2.55,2.55,0,0,0-2.251,1.367m3.327,13.749,3.186-6.015h7.645l3.612,6.015-4.037,6.659h-6.581Z" transform="translate(-1750.921 44.535)" fill="#fff"/>
      <path id="Path_674" data-name="Path 674" d="M1863.322,22.311l-6.1,11.514a3.1,3.1,0,0,0,.05,3l7.577,13.211a3.034,3.034,0,0,0,2.627,1.529h12.584a3.015,3.015,0,0,0,2.587-1.467l7.97-13.155a3.094,3.094,0,0,0,.006-3.2l-6.939-11.57a3.032,3.032,0,0,0-2.6-1.479H1866a3.023,3.023,0,0,0-2.677,1.624m3.461,13.491,3.187-6.015h7.645l3.612,6.015-4.038,6.659h-6.58Z" transform="translate(-1781.64 26.267)" fill="#fff"/>
      <path id="Path_675" data-name="Path 675" d="M1856.394,18.174l-6.1,11.514a3.129,3.129,0,0,0,.051,3l7.583,13.211a3.034,3.034,0,0,0,2.627,1.529h12.578a3.033,3.033,0,0,0,2.593-1.467L1883.7,32.8a3.1,3.1,0,0,0,.006-3.2l-6.939-11.57a3.052,3.052,0,0,0-2.6-1.479h-15.094a3.043,3.043,0,0,0-2.678,1.624m3.467,13.491,3.188-6.015h7.645l3.606,6.015-4.032,6.659h-6.586Z" transform="translate(-1813.49 7.235)" fill="#fff"/>
      <path id="Path_676" data-name="Path 676" d="M1869.286,19.732l-5.169,9.767a6.811,6.811,0,0,0,.111,6.569L1871,47.885a6.65,6.65,0,0,0,5.764,3.355h10.64a6.652,6.652,0,0,0,5.685-3.215l7.085-11.7a6.8,6.8,0,0,0,.017-7.017l-5.931-9.885a6.654,6.654,0,0,0-5.7-3.243H1875.16a6.651,6.651,0,0,0-5.874,3.556m3.595,13.553,4.173-7.869h10l4.722,7.869-5.281,8.72h-8.608Z" transform="translate(-1751.896 5.514)" fill="#fff"/>
      <path id="Path_677" data-name="Path 677" d="M1862.619,15.859l-5.174,9.773a6.8,6.8,0,0,0,.111,6.564l6.782,11.817a6.64,6.64,0,0,0,5.758,3.355h10.646a6.655,6.655,0,0,0,5.678-3.22l7.085-11.7a6.8,6.8,0,0,0,.017-7.017l-5.931-9.885a6.654,6.654,0,0,0-5.7-3.243h-13.407a6.652,6.652,0,0,0-5.87,3.556m3.6,13.553,4.166-7.869h10l4.728,7.869-5.282,8.72h-8.613Z" transform="translate(-1782.585 -12.303)" fill="#fff"/>
      <path id="Path_678" data-name="Path 678" d="M1876.114,23.869l-5.176,9.767a6.829,6.829,0,0,0,.112,6.569l6.782,11.817a6.648,6.648,0,0,0,5.757,3.355h10.646a6.639,6.639,0,0,0,5.68-3.215l7.09-11.7a6.817,6.817,0,0,0,.011-7.017l-5.931-9.885a6.634,6.634,0,0,0-5.7-3.243h-13.407a6.648,6.648,0,0,0-5.869,3.556m3.595,13.553,4.167-7.874h10l4.727,7.874-5.281,8.72h-8.614Z" transform="translate(-1720.496 24.546)" fill="#fff"/>
      <path id="Path_679" data-name="Path 679" d="M1876.171,23.869,1871,33.636a6.813,6.813,0,0,0,.106,6.569l6.782,11.817a6.649,6.649,0,0,0,5.763,3.355h10.641a6.639,6.639,0,0,0,5.68-3.215l7.09-11.7a6.8,6.8,0,0,0,.011-7.017l-5.931-9.885a6.632,6.632,0,0,0-5.689-3.243h-13.408a6.65,6.65,0,0,0-5.874,3.556m3.595,13.553,4.167-7.874h10.008l4.722,7.874-5.281,8.72h-8.614Z" transform="translate(-1720.233 24.546)" fill="#fff"/>
      <path id="Path_680" data-name="Path 680" d="M1869.673,34.542l-5.482,10.344a3.4,3.4,0,0,0,.056,3.254l6.861,11.951a3.289,3.289,0,0,0,2.851,1.658h11.3a3.282,3.282,0,0,0,2.812-1.591l7.208-11.9a3.362,3.362,0,0,0,0-3.472l-6.244-10.406a3.281,3.281,0,0,0-2.816-1.607h-13.644a3.282,3.282,0,0,0-2.9,1.764m4.044,12.214,2.409-4.553h5.773l2.732,4.553-3.052,5.035h-4.974Z" transform="translate(-1749.708 81.89)" fill="#fff"/>
      <path id="Path_681" data-name="Path 681" d="M1876.426,38.436l-5.482,10.35a3.379,3.379,0,0,0,.056,3.248l6.86,11.951a3.283,3.283,0,0,0,2.852,1.663h11.3a3.284,3.284,0,0,0,2.806-1.6l7.208-11.9a3.364,3.364,0,0,0,.006-3.472l-6.244-10.406a3.278,3.278,0,0,0-2.817-1.6h-13.643a3.275,3.275,0,0,0-2.9,1.759m4.043,12.214,2.409-4.548h5.779l2.728,4.548-3.053,5.035h-4.973Z" transform="translate(-1718.646 99.827)" fill="#fff"/>
      <path id="Path_682" data-name="Path 682" d="M1862.915,30.317l-5.674,10.708a3.014,3.014,0,0,0,.051,2.907l7.057,12.3a2.943,2.943,0,0,0,2.548,1.484h11.7a2.926,2.926,0,0,0,2.509-1.423l7.427-12.254a3,3,0,0,0,0-3.1l-6.457-10.764a2.929,2.929,0,0,0-2.515-1.434h-14.052a2.932,2.932,0,0,0-2.593,1.574m3.942,12.4,2.409-4.548h5.779l2.732,4.548-3.052,5.035h-4.979Z" transform="translate(-1781.496 63.328)" fill="#fff"/>
      <path id="Path_683" data-name="Path 683" d="M1856.377,26.2l-5.83,11.01a2.71,2.71,0,0,0,.045,2.621l7.219,12.584a2.651,2.651,0,0,0,2.3,1.338h12.023a2.664,2.664,0,0,0,2.269-1.282L1882,39.925a2.707,2.707,0,0,0,.007-2.795l-6.637-11.055a2.649,2.649,0,0,0-2.269-1.294h-14.382a2.645,2.645,0,0,0-2.341,1.417m3.858,12.556,2.408-4.548h5.78l2.727,4.548L1868.1,43.79h-4.979Z" transform="translate(-1812.145 45.105)" fill="#fff"/>
      <path id="Path_684" data-name="Path 684" d="M1849.344,22.4l-5.532,10.45a3.268,3.268,0,0,0,.05,3.153l6.916,12.046a3.191,3.191,0,0,0,2.767,1.613h11.414a3.174,3.174,0,0,0,2.722-1.546l7.27-11.99a3.281,3.281,0,0,0,0-3.371l-6.306-10.506a3.189,3.189,0,0,0-2.733-1.557h-13.754a3.183,3.183,0,0,0-2.817,1.708m4.016,12.265,2.409-4.548h5.779l2.727,4.548-3.052,5.035h-4.974Z" transform="translate(-1843.431 26.267)" fill="#fff"/>
    </g>
  </g>
</svg>
