<?xml version="1.0" encoding="UTF-8"?>
<svg id="Group_7" data-name="Group 7" xmlns="http://www.w3.org/2000/svg" viewBox="0 0 95.59 95.59">
  <defs>
    <style>
      .cls-1 {
        fill: #186b3f;
      }
    </style>
  </defs>
  <path id="Path_212" data-name="Path 212" class="cls-1" d="M16.97,78.59c-4.25,0-7.7-3.45-7.7-7.7h0V24.7c0-4.25,3.45-7.7,7.7-7.7h17.96c.76,0,1.49,.34,1.98,.92l7.78,9.34h31.31c1.42,0,2.57,1.15,2.57,2.57s-1.15,2.57-2.57,2.57H43.48c-.75,0-1.47-.34-1.95-.92l-7.8-9.34H16.97c-1.42,0-2.57,1.15-2.57,2.56,0,0,0,0,0,0v46.19c0,1.42,1.15,2.57,2.57,2.57h0c1.42,0,2.57,1.15,2.57,2.57s-1.15,2.57-2.57,2.57h0Z"/>
  <path id="Path_213" data-name="Path 213" class="cls-1" d="M71.84,78.59H16.97c-1.42,.03-2.59-1.09-2.62-2.51,0-.2,.01-.4,.06-.6l7.7-35.93c.26-1.2,1.33-2.06,2.57-2.03h59.03c1.42-.03,2.59,1.09,2.62,2.51,0,.2-.01,.4-.06,.6l-6.88,31.88c-.76,3.55-3.91,6.09-7.54,6.08Zm-51.69-5.13h51.69c1.23,.03-51.94,1.2-51.69,0l4.52-28.03,1.95-2.77-6.47,30.8Z"/>
</svg>