<?xml version="1.0" encoding="UTF-8"?>
<svg id="Group_7" data-name="Group 7" xmlns="http://www.w3.org/2000/svg" viewBox="0 0 95.59 95.59">
  <defs>
    <style>
      .cls-1 {
        fill: #186b3f;
      }
    </style>
  </defs>
  <g id="_211660_email_icon" data-name=" 211660 email icon">
    <path id="Path_209" data-name="Path 209" class="cls-1" d="M9.96,26.31c2.2,1.16,32.79,17.84,33.93,18.44,2.61,1.17,5.6,1.17,8.21,0,1.14-.6,31.73-17.28,33.93-18.44,.82-.42,2.2-1.18,2.5-2.04,.52-1.52-.04-2.1-2.26-2.1H9.72c-2.22,0-2.78,.6-2.26,2.1,.3,.88,1.68,1.62,2.5,2.04Z"/>
    <path id="Path_210" data-name="Path 210" class="cls-1" d="M87.78,27.22c-1.64,.84-16.38,11.33-26.13,17.64l16.46,18.52c.4,.4,.58,.88,.36,1.12-.24,.22-.76,.1-1.18-.28l-19.74-16.66c-2.98,1.92-5.08,3.24-5.44,3.44-2.61,1.17-5.6,1.17-8.21,0-.38-.2-2.46-1.52-5.44-3.44l-19.74,16.66c-.4,.4-.94,.52-1.18,.28-.24-.22-.06-.72,.34-1.12l16.44-18.52c-9.75-6.31-24.64-16.8-26.29-17.64-1.76-.9-1.86,.16-1.86,.98v41.04c0,1.86,2.74,4.18,4.7,4.18H85.13c1.96,0,4.3-2.34,4.3-4.18V28.2c0-.84,.13-1.88-1.65-.98Z"/>
  </g>
</svg>