<svg xmlns="http://www.w3.org/2000/svg" width="268.155" height="279.599" viewBox="0 0 268.155 279.599">
  <path id="contact-books" d="M260.493,33.939h-17.41V31.527c-.013-12.55-9.432-22.719-21.054-22.734H42.135C33.616,8.8,26.712,16.258,26.7,25.457v30.27H16.938C7.583,55.726,0,63.915,0,74.017s7.584,18.29,16.939,18.29H26.7V130.3H16.938C7.583,130.3,0,138.49,0,148.592s7.584,18.29,16.939,18.29H26.7v37.995H16.938C7.583,204.877,0,213.066,0,223.167s7.584,18.29,16.939,18.29H26.7v30.27c.009,9.2,6.913,16.654,15.433,16.665H222.029c11.622-.014,21.041-10.184,21.054-22.734v-2.412h17.41c4.229-.005,7.657-3.706,7.661-8.273V206.791c0-4.566-3.432-8.266-7.661-8.272h-17.41V180.956h17.41c4.229,0,7.657-3.706,7.661-8.273V124.5c0-4.566-3.432-8.266-7.661-8.271h-17.41V98.668h17.41c4.229-.006,7.656-3.706,7.661-8.272V42.214c0-4.567-3.431-8.269-7.661-8.275ZM16.938,83.259c-4.727,0-8.559-4.138-8.559-9.242s3.832-9.242,8.559-9.242h25.5c4.727,0,8.559,4.138,8.559,9.242s-3.832,9.242-8.559,9.242Zm0,74.575c-4.727,0-8.559-4.138-8.559-9.242s3.832-9.242,8.559-9.242h25.5c4.727,0,8.559,4.138,8.559,9.242s-3.832,9.242-8.559,9.242Zm0,74.575c-4.727,0-8.559-4.138-8.559-9.242s3.832-9.242,8.559-9.242h25.5c4.727,0,8.559,4.138,8.559,9.242s-3.832,9.242-8.559,9.242ZM234.7,265.657c-.008,7.555-5.678,13.677-12.674,13.686H42.135a7.359,7.359,0,0,1-7.053-7.616v-30.27h7.354c9.355,0,16.939-8.189,16.939-18.29s-7.584-18.29-16.939-18.29H35.082V166.882h7.354c9.355,0,16.939-8.189,16.939-18.29S51.792,130.3,42.436,130.3H35.082V92.307h7.354c9.355,0,16.939-8.189,16.939-18.29s-7.584-18.29-16.939-18.29H35.082V25.457a7.36,7.36,0,0,1,7.053-7.616H222.029c7,.009,12.666,6.131,12.674,13.685Zm25.07-58.093V254.2H243.083V207.564Zm0-82.288v46.631H243.083V125.276Zm0-35.657H243.083V42.987h16.691ZM134.893,50.475c-30.946,0-56.032,27.087-56.032,60.5s25.086,60.5,56.031,60.5,56.031-27.087,56.031-60.5c-.034-33.4-25.1-60.464-56.031-60.5Zm0,111.952a45.352,45.352,0,0,1-30.32-11.788c5.258-13.009,17.175-21.4,30.32-21.345,13.114.06,24.978,8.415,30.315,21.349a45.348,45.348,0,0,1-30.315,11.786Zm-14.269-59.084c0-8.51,6.389-15.408,14.269-15.408s14.269,6.9,14.269,15.408-6.389,15.407-14.269,15.407-14.26-6.9-14.269-15.407Zm50.855,40.563A42.967,42.967,0,0,0,148.6,122.8c7.737-6.346,10.863-17.314,7.77-27.259s-11.716-16.653-21.432-16.671-18.361,6.657-21.485,16.591-.033,20.913,7.683,27.288A42.267,42.267,0,0,0,98.3,143.891c-16.144-20.9-14.42-51.764,3.934-70.419s46.988-18.649,65.335.013,20.061,49.525,3.909,70.42Zm17.994,49.458a4.367,4.367,0,0,1-4.19,4.524H84.5a4.537,4.537,0,0,1,0-9.048H185.283A4.367,4.367,0,0,1,189.472,193.364Zm0,28.212a4.367,4.367,0,0,1-4.19,4.524H84.5a4.537,4.537,0,0,1,0-9.048H185.283A4.367,4.367,0,0,1,189.472,221.576Zm0,28.212a4.367,4.367,0,0,1-4.19,4.524H84.5a4.537,4.537,0,0,1,0-9.048H185.283A4.367,4.367,0,0,1,189.472,249.787Z" transform="translate(0.001 -8.793)" fill="#f1f1f1"/>
</svg>
