<svg xmlns="http://www.w3.org/2000/svg" xmlns:xlink="http://www.w3.org/1999/xlink" width="151.304" height="151.304" viewBox="0 0 151.304 151.304">
  <defs>
    <clipPath id="clip-path">
      <path id="path2279" d="M0-682.665H151.3v151.3H0Z" transform="translate(0 682.665)" fill="#265c3b"/>
    </clipPath>
  </defs>
  <g id="g2253" transform="translate(0 682.665)">
    <g id="g2255" transform="translate(17.516 -629.021)">
      <path id="path2257" d="M48.951-5.567H-7.784A2.216,2.216,0,0,1-10-7.784,2.216,2.216,0,0,1-7.784-10H48.951a2.216,2.216,0,0,1,2.216,2.216A2.216,2.216,0,0,1,48.951-5.567Z" transform="translate(10 10)" fill="#265c3b"/>
    </g>
    <g id="g2259" transform="translate(17.516 -613.448)">
      <path id="path2261" d="M48.951-5.567H-7.784A2.216,2.216,0,0,1-10-7.784,2.216,2.216,0,0,1-7.784-10H48.951a2.216,2.216,0,0,1,2.216,2.216A2.216,2.216,0,0,1,48.951-5.567Z" transform="translate(10 10)" fill="#265c3b"/>
    </g>
    <g id="g2263" transform="translate(17.516 -597.876)">
      <path id="path2265" d="M48.951-5.567H-7.784A2.216,2.216,0,0,1-10-7.784,2.216,2.216,0,0,1-7.784-10H48.951a2.216,2.216,0,0,1,2.216,2.216A2.216,2.216,0,0,1,48.951-5.567Z" transform="translate(10 10)" fill="#265c3b"/>
    </g>
    <g id="g2267" transform="translate(17.516 -582.304)">
      <path id="path2269" d="M48.951-5.567H-7.784A2.216,2.216,0,0,1-10-7.784,2.216,2.216,0,0,1-7.784-10H48.951a2.216,2.216,0,0,1,2.216,2.216A2.216,2.216,0,0,1,48.951-5.567Z" transform="translate(10 10)" fill="#265c3b"/>
    </g>
    <g id="g2271" transform="translate(17.516 -559.482)">
      <path id="path2273" d="M20.656-5.567H-7.784A2.216,2.216,0,0,1-10-7.784,2.216,2.216,0,0,1-7.784-10h28.44a2.216,2.216,0,0,1,2.216,2.216A2.216,2.216,0,0,1,20.656-5.567Z" transform="translate(10 10)" fill="#265c3b"/>
    </g>
    <g id="g2275" transform="translate(0 -682.665)">
      <g id="g2277" clip-path="url(#clip-path)">
        <g id="g2283" transform="translate(0.821 0.006)">
          <path id="path2285" d="M-137.157,15.083H-235.2A10.978,10.978,0,0,1-246.163,4.118V-102.405a10.893,10.893,0,0,1,3.212-7.754l22.85-22.85a10.894,10.894,0,0,1,7.754-3.212h75.19a10.978,10.978,0,0,1,10.966,10.965v29.5a2.216,2.216,0,0,1-2.216,2.216,2.216,2.216,0,0,1-2.216-2.216v-29.5a6.54,6.54,0,0,0-6.533-6.533h-75.19a6.49,6.49,0,0,0-4.619,1.914l-22.85,22.85a6.49,6.49,0,0,0-1.913,4.619V4.118a6.54,6.54,0,0,0,6.532,6.533h98.041a6.54,6.54,0,0,0,6.533-6.533V1.133a2.216,2.216,0,0,1,2.216-2.216,2.216,2.216,0,0,1,2.216,2.216V4.118A10.978,10.978,0,0,1-137.157,15.083Zm-12.789-118.9h-45.5a4.974,4.974,0,0,1-4.968-4.968v-7.191a4.974,4.974,0,0,1,4.968-4.968h45.5a4.974,4.974,0,0,1,4.968,4.968v7.191A4.974,4.974,0,0,1-149.947-103.813Zm-45.5-12.695a.536.536,0,0,0-.535.535v7.191a.536.536,0,0,0,.535.535h45.5a.536.536,0,0,0,.535-.535v-7.191a.536.536,0,0,0-.535-.535Z" transform="translate(246.163 136.221)" fill="#265c3b"/>
        </g>
        <g id="g2287" transform="translate(103.137 105.642)">
          <path id="path2289" d="M-5.3,19.306a4.7,4.7,0,0,1-2.294-.6A4.708,4.708,0,0,1-10,14.6V-7.784A2.216,2.216,0,0,1-7.784-10,2.216,2.216,0,0,1-5.567-7.784V14.6a.249.249,0,0,0,.139.237.249.249,0,0,0,.275-.006l8.128-5a4.7,4.7,0,0,1,4.932,0l8.127,5a.271.271,0,0,0,.413-.231V-7.784A2.216,2.216,0,0,1,18.663-10a2.216,2.216,0,0,1,2.216,2.216V14.6a4.7,4.7,0,0,1-7.17,4.006l-8.128-5H5.3l-8.128,5A4.7,4.7,0,0,1-5.3,19.306Z" transform="translate(10 10)" fill="#265c3b"/>
        </g>
        <g id="g2291" transform="translate(86.679 48.621)">
          <path id="path2293" d="M-112.02-156.891a8.8,8.8,0,0,1-7.008-3.439,4.459,4.459,0,0,0-3.5-1.719,4.426,4.426,0,0,0-1.24.178,8.907,8.907,0,0,1-1.131.252,8.807,8.807,0,0,1-1.362.106,8.817,8.817,0,0,1-8.847-8.6,4.4,4.4,0,0,0-2.931-4.035,8.8,8.8,0,0,1-5.436-5.6,8.8,8.8,0,0,1,1.1-7.727,4.4,4.4,0,0,0,0-4.987,8.8,8.8,0,0,1-1.1-7.728,8.8,8.8,0,0,1,5.436-5.6,4.4,4.4,0,0,0,2.931-4.035,8.817,8.817,0,0,1,8.847-8.6,8.9,8.9,0,0,1,2.493.359,4.426,4.426,0,0,0,1.239.177,4.46,4.46,0,0,0,3.5-1.719,8.8,8.8,0,0,1,7.008-3.438,8.8,8.8,0,0,1,7.008,3.438,4.459,4.459,0,0,0,3.5,1.719,4.428,4.428,0,0,0,1.24-.178,8.9,8.9,0,0,1,2.493-.359,8.817,8.817,0,0,1,8.847,8.6A4.4,4.4,0,0,0-86-205.793a8.8,8.8,0,0,1,5.436,5.6,8.8,8.8,0,0,1-1.1,7.728,4.4,4.4,0,0,0,0,4.987,8.8,8.8,0,0,1,1.1,7.727,8.8,8.8,0,0,1-5.436,5.6,4.4,4.4,0,0,0-2.931,4.035,8.816,8.816,0,0,1-8.846,8.6,8.881,8.881,0,0,1-1.365-.106,8.912,8.912,0,0,1-1.13-.252,4.424,4.424,0,0,0-1.239-.177,4.458,4.458,0,0,0-3.5,1.719A8.8,8.8,0,0,1-112.02-156.891Zm-10.511-9.59a8.921,8.921,0,0,1,7.009,3.439,4.4,4.4,0,0,0,3.5,1.719,4.4,4.4,0,0,0,3.5-1.718,8.92,8.92,0,0,1,7.009-3.439,8.858,8.858,0,0,1,2.482.355,4.492,4.492,0,0,0,.571.128,4.446,4.446,0,0,0,5.1-4.245,8.81,8.81,0,0,1,5.865-8.073,4.4,4.4,0,0,0,2.717-2.8,4.4,4.4,0,0,0-.552-3.862,8.812,8.812,0,0,1,0-9.979,4.4,4.4,0,0,0,.552-3.862,4.4,4.4,0,0,0-2.717-2.8,8.811,8.811,0,0,1-5.865-8.073,4.458,4.458,0,0,0-4.416-4.3,4.467,4.467,0,0,0-1.251.181,8.859,8.859,0,0,1-2.481.355,8.921,8.921,0,0,1-7.009-3.439,4.4,4.4,0,0,0-3.5-1.718,4.4,4.4,0,0,0-3.5,1.718,8.922,8.922,0,0,1-7.009,3.439,8.857,8.857,0,0,1-2.481-.355,4.468,4.468,0,0,0-1.252-.181,4.458,4.458,0,0,0-4.416,4.3,8.811,8.811,0,0,1-5.865,8.073,4.4,4.4,0,0,0-2.717,2.8,4.4,4.4,0,0,0,.552,3.862,8.812,8.812,0,0,1,0,9.979,4.4,4.4,0,0,0-.552,3.862,4.4,4.4,0,0,0,2.717,2.8,8.81,8.81,0,0,1,5.865,8.073,4.458,4.458,0,0,0,4.416,4.3,4.386,4.386,0,0,0,.679-.053,4.486,4.486,0,0,0,.572-.128A8.859,8.859,0,0,1-122.531-166.481Zm10.511-4.913a18.6,18.6,0,0,1-18.574-18.574,18.6,18.6,0,0,1,18.574-18.574,18.6,18.6,0,0,1,18.574,18.574A18.6,18.6,0,0,1-112.02-171.394Zm0-32.716a14.158,14.158,0,0,0-14.142,14.142,14.158,14.158,0,0,0,14.142,14.142,14.158,14.158,0,0,0,14.142-14.142A14.158,14.158,0,0,0-112.02-204.11Z" transform="translate(143.918 223.046)" fill="#265c3b"/>
        </g>
        <g id="g2295" transform="translate(100.002 63.123)">
          <path id="path2297" d="M-65.231-10A18.6,18.6,0,0,1-46.656,8.574,18.6,18.6,0,0,1-65.231,27.149,18.6,18.6,0,0,1-83.805,8.574,18.6,18.6,0,0,1-65.231-10Zm0,32.716A14.158,14.158,0,0,0-51.089,8.574,14.158,14.158,0,0,0-65.231-5.567,14.158,14.158,0,0,0-79.372,8.574,14.158,14.158,0,0,0-65.231,22.716Z" transform="translate(83.805 10)" fill="#265c3b"/>
        </g>
        <g id="g2299" transform="translate(1.607 0.792)">
          <path id="path2301" d="M-108.693,21.622h-21.765a2.216,2.216,0,0,1-2.216-2.216,2.216,2.216,0,0,1,2.216-2.216h21.765a3.211,3.211,0,0,0,3.208-3.208V-7.784A2.216,2.216,0,0,1-103.269-10a2.216,2.216,0,0,1,2.216,2.216V13.981A7.649,7.649,0,0,1-108.693,21.622Z" transform="translate(132.674 10)" fill="#265c3b"/>
        </g>
      </g>
    </g>
  </g>
</svg>
