<svg id="Group_652" data-name="Group 652" xmlns="http://www.w3.org/2000/svg" width="36.027" height="32.807" viewBox="0 0 36.027 32.807">
  <path id="Path_641" data-name="Path 641" d="M1874.955,658.314h21.186l-11.573,9.088a1.552,1.552,0,0,1-.8.312,1.575,1.575,0,0,1-.807-.312l-8.27-6.5a.888.888,0,0,0-.3-.157,3.224,3.224,0,0,0,.6-1.93,4.645,4.645,0,0,0-.038-.5Zm-5.388-5.845a.864.864,0,0,1,.166.066,2.941,2.941,0,0,1,.781.641,10.3,10.3,0,0,1,1.486,2.26c.01.019.02.04.029.061a7.761,7.761,0,0,1,1.255,3.347,1.3,1.3,0,0,1-.79,1.378l-1.572.906a3.444,3.444,0,0,0-1.627,2.631,4.358,4.358,0,0,0,.495,2.7l3.88,6.687a4.4,4.4,0,0,0,2.107,1.779,3.476,3.476,0,0,0,3.1-.088l1.572-.9a1.317,1.317,0,0,1,1.595.011,7.8,7.8,0,0,1,2.29,2.751c.013.022.024.04.038.061a10.365,10.365,0,0,1,1.225,2.409,2.92,2.92,0,0,1,.167.992c-.018.207-.023.186-.077.218l-1.2.686a9.158,9.158,0,0,1-8.219-.267,15.458,15.458,0,0,1-6.1-6.314c-.005-.006-.007-.013-.011-.016l-3.273-5.64c0-.006-.007-.011-.012-.018a15.344,15.344,0,0,1-2.444-8.416,9.038,9.038,0,0,1,3.877-7.213l1.2-.683c.028-.016.037-.028.062-.026Zm.013-1.68a1.776,1.776,0,0,0-.93.23l-1.265.727-.081.05a10.893,10.893,0,0,0-4.582,8.524,16.94,16.94,0,0,0,2.693,9.376l3.261,5.62-.007-.016a17.032,17.032,0,0,0,6.812,7,11.009,11.009,0,0,0,9.712.314.53.53,0,0,0,.083-.041l1.267-.728a1.973,1.973,0,0,0,.928-1.548,4.188,4.188,0,0,0-.24-1.656,11.317,11.317,0,0,0-1.433-2.824,8.963,8.963,0,0,0-2.871-3.337,3.274,3.274,0,0,0-3.332-.026l-1.571.906a1.726,1.726,0,0,1-1.579-.006,3.016,3.016,0,0,1-1.291-1.063l-3.879-6.686a3,3,0,0,1-.281-1.648,1.7,1.7,0,0,1,.786-1.357l1.527-.878a.842.842,0,0,0,.323.515l8.271,6.5a3.247,3.247,0,0,0,1.817.7.837.837,0,0,0,.1,0,3.237,3.237,0,0,0,1.814-.7l11.392-8.948v14.784c0,.225-.257.521-.76.521h-7.886a.852.852,0,1,0,0,1.7h7.886a2.365,2.365,0,0,0,2.474-2.224v-15.74a2.365,2.365,0,0,0-2.474-2.225h-21.777a15.187,15.187,0,0,0-.961-1.937,11.325,11.325,0,0,0-1.746-2.644,4.236,4.236,0,0,0-1.319-1.036v0a2.2,2.2,0,0,0-.88-.207Z" transform="translate(-1862.71 -650.789)" fill="#b3b3b3"/>
</svg>
