<svg xmlns="http://www.w3.org/2000/svg" xmlns:xlink="http://www.w3.org/1999/xlink" width="196.998" height="228.276" viewBox="0 0 196.998 228.276">
  <defs>
    <clipPath id="clip-path">
      <rect id="Rectangle_753" data-name="Rectangle 753" width="173.319" height="228.276" fill="#646d71"/>
    </clipPath>
  </defs>
  <g id="Group_2433" data-name="Group 2433" transform="translate(-51 -28.724)">
    <g id="Group_2383" data-name="Group 2383" transform="translate(51 28.724)">
      <rect id="Rectangle_750" data-name="Rectangle 750" width="117.647" height="14.471" transform="translate(27.637 106.769)" fill="#adbcc3"/>
      <rect id="Rectangle_751" data-name="Rectangle 751" width="117.647" height="14.471" transform="translate(27.637 83.779)" fill="#adbcc3"/>
      <path id="Path_1093" data-name="Path 1093" d="M66.119,312.833v14.473l117.647-.165V312.833Z" transform="translate(-38.482 -182.071)" fill="#adbcc3"/>
      <path id="Path_1094" data-name="Path 1094" d="M267.13,350.981l2.747-3.123h-5.613Z" transform="translate(-153.803 -202.455)" fill="#fff"/>
      <g id="Group_2382" data-name="Group 2382">
        <g id="Group_2381" data-name="Group 2381" clip-path="url(#clip-path)">
          <path id="Path_1095" data-name="Path 1095" d="M171.893,1.428A4.915,4.915,0,0,0,168.444,0H4.875A4.871,4.871,0,0,0,0,4.874V223.4a4.871,4.871,0,0,0,4.875,4.873H138.649a4.874,4.874,0,0,0,3.433-1.415l15.029-14.93.02-.02L171.9,197.083a4.891,4.891,0,0,0,1.422-3.44V4.874a4.916,4.916,0,0,0-1.427-3.447M137.43,218.7V193.643h25.962Zm26.14-63.6V183.9H132.555a4.881,4.881,0,0,0-4.878,4.873v29.759H9.747V9.748H163.57V155.1Z" transform="translate(0 -0.001)" fill="#646d71"/>
          <path id="Path_1096" data-name="Path 1096" d="M328.785,488.323l25.962-25.06H328.785Z" transform="translate(-191.354 -269.622)" fill="#f5f5f5"/>
          <rect id="Rectangle_752" data-name="Rectangle 752" width="100.506" height="14.471" transform="translate(44.779 58.949)" fill="#adbcc3"/>
        </g>
      </g>
    </g>
    <g id="Group_2385" data-name="Group 2385" transform="translate(174.002 42.587)">
      <path id="Path_637" data-name="Path 637" d="M1753.811,4132.465a3.146,3.146,0,0,1-3.083,3.189H1682.9a3.147,3.147,0,0,1-3.084-3.189v-31.9a3.147,3.147,0,0,1,3.084-3.189h67.829a3.146,3.146,0,0,1,3.083,3.189Z" transform="translate(-1679.815 -4097.38)" fill="#27a2db"/>
      <g id="Group_647" data-name="Group 647" transform="translate(12.76 11.246)">
        <path id="Path_638" data-name="Path 638" d="M1704.1,4110.991a7.1,7.1,0,0,1,2.2,5.548,7.467,7.467,0,0,1-2.136,5.623q-2.138,2.071-6.539,2.071h-5.057V4109h5.231A9.061,9.061,0,0,1,1704.1,4110.991Zm-.392,5.612q0-5.23-5.994-5.231h-2.572v10.441H1698a6.147,6.147,0,0,0,4.24-1.319A4.956,4.956,0,0,0,1703.713,4116.6Z" transform="translate(-1692.575 -4108.626)" fill="#fff"/>
        <path id="Path_639" data-name="Path 639" d="M1722.371,4122.129a8.354,8.354,0,0,1-11.42,0,8,8,0,0,1,0-11.247,8.354,8.354,0,0,1,11.42,0,8,8,0,0,1,0,11.247Zm-1.884-9.536a5.345,5.345,0,0,0-7.652,0,5.692,5.692,0,0,0,0,7.825,5.341,5.341,0,0,0,7.652,0,5.695,5.695,0,0,0,0-7.825Z" transform="translate(-1692.575 -4108.626)" fill="#fff"/>
        <path id="Path_640" data-name="Path 640" d="M1734.884,4121.9a5.385,5.385,0,0,0,2.288-.446,7.9,7.9,0,0,0,2.006-1.428l1.655,1.7a7.622,7.622,0,0,1-5.873,2.681,7.874,7.874,0,0,1-5.733-2.224,8.079,8.079,0,0,1,.044-11.291,8.048,8.048,0,0,1,5.863-2.267,7.665,7.665,0,0,1,5.917,2.616l-1.633,1.787a7.163,7.163,0,0,0-2.062-1.46,5.758,5.758,0,0,0-2.277-.415,5.417,5.417,0,0,0-3.88,1.494,5.036,5.036,0,0,0-1.57,3.815,5.262,5.262,0,0,0,1.56,3.879A5.048,5.048,0,0,0,1734.884,4121.9Z" transform="translate(-1692.575 -4108.626)" fill="#fff"/>
      </g>
    </g>
    <path id="Path_1097" data-name="Path 1097" d="M1473.812,4078.832a24.285,24.285,0,1,0,24.285,24.285A24.284,24.284,0,0,0,1473.812,4078.832Zm7.966,39.928h-15.933a2.023,2.023,0,1,1,0-4.047h15.933a2.023,2.023,0,1,1,0,4.047Zm1.431-15.222-7.973,7.977a2.023,2.023,0,0,1-2.861,0l-7.961-7.959a2.026,2.026,0,0,1,2.862-2.868l4.512,4.512v-17.9a2.023,2.023,0,1,1,4.047,0v17.892l4.512-4.512a2.024,2.024,0,0,1,2.862,2.862Z" transform="translate(-1381.155 -3887.793)" fill="#646d71"/>
  </g>
</svg>
