<svg id="Group_648" data-name="Group 648" xmlns="http://www.w3.org/2000/svg" width="73.996" height="38.274" viewBox="0 0 73.996 38.274">
  <path id="Path_637" data-name="Path 637" d="M1753.811,4132.465a3.146,3.146,0,0,1-3.083,3.189H1682.9a3.147,3.147,0,0,1-3.084-3.189v-31.9a3.147,3.147,0,0,1,3.084-3.189h67.829a3.146,3.146,0,0,1,3.083,3.189Z" transform="translate(-1679.815 -4097.38)" fill="#27a2db"/>
  <g id="Group_647" data-name="Group 647" transform="translate(12.76 11.246)">
    <path id="Path_638" data-name="Path 638" d="M1704.1,4110.991a7.1,7.1,0,0,1,2.2,5.548,7.467,7.467,0,0,1-2.136,5.623q-2.138,2.071-6.539,2.071h-5.057V4109h5.231A9.061,9.061,0,0,1,1704.1,4110.991Zm-.392,5.612q0-5.23-5.994-5.231h-2.572v10.441H1698a6.147,6.147,0,0,0,4.24-1.319A4.956,4.956,0,0,0,1703.713,4116.6Z" transform="translate(-1692.575 -4108.626)" fill="#fff"/>
    <path id="Path_639" data-name="Path 639" d="M1722.371,4122.129a8.354,8.354,0,0,1-11.42,0,8,8,0,0,1,0-11.247,8.354,8.354,0,0,1,11.42,0,8,8,0,0,1,0,11.247Zm-1.884-9.536a5.345,5.345,0,0,0-7.652,0,5.692,5.692,0,0,0,0,7.825,5.341,5.341,0,0,0,7.652,0,5.695,5.695,0,0,0,0-7.825Z" transform="translate(-1692.575 -4108.626)" fill="#fff"/>
    <path id="Path_640" data-name="Path 640" d="M1734.884,4121.9a5.385,5.385,0,0,0,2.288-.446,7.9,7.9,0,0,0,2.006-1.428l1.655,1.7a7.622,7.622,0,0,1-5.873,2.681,7.874,7.874,0,0,1-5.733-2.224,8.079,8.079,0,0,1,.044-11.291,8.048,8.048,0,0,1,5.863-2.267,7.665,7.665,0,0,1,5.917,2.616l-1.633,1.787a7.163,7.163,0,0,0-2.062-1.46,5.758,5.758,0,0,0-2.277-.415,5.417,5.417,0,0,0-3.88,1.494,5.036,5.036,0,0,0-1.57,3.815,5.262,5.262,0,0,0,1.56,3.879A5.048,5.048,0,0,0,1734.884,4121.9Z" transform="translate(-1692.575 -4108.626)" fill="#fff"/>
  </g>
</svg>
