<svg id="surface1" xmlns="http://www.w3.org/2000/svg" width="21.834" height="24" viewBox="0 0 21.834 24">
  <path id="Path_718" data-name="Path 718" d="M16.357,10.389V5.847a.526.526,0,0,0-.145-.345L11.12.155A.508.508,0,0,0,10.755,0H2.681A2.69,2.69,0,0,0,0,2.706V17.973a2.673,2.673,0,0,0,2.681,2.686H9.054a6.879,6.879,0,1,0,7.3-10.269Zm-5.1-8.634,3.416,3.6H12.455a1.208,1.208,0,0,1-1.2-1.205Zm-8.574,17.9A1.676,1.676,0,0,1,1,17.973V2.706A1.69,1.69,0,0,1,2.681,1h7.573V4.147a2.205,2.205,0,0,0,2.2,2.206h2.9v3.907c-.15,0-.27-.02-.4-.02a6.98,6.98,0,0,0-4.562,1.721H4.042a.5.5,0,1,0,0,1H9.464a7.959,7.959,0,0,0-.88,1.551H4.042a.5.5,0,0,0,0,1H8.258a6.865,6.865,0,0,0,.3,4.152H2.681ZM14.951,23a5.878,5.878,0,1,1,5.877-5.878A5.884,5.884,0,0,1,14.951,23Zm0,0" fill="#fff"/>
  <path id="Path_719" data-name="Path 719" d="M76.051,202.684h5.067a.5.5,0,1,0,0-1H76.051a.5.5,0,1,0,0,1Zm0,0" transform="translate(-72.009 -192.23)" fill="#fff"/>
  <path id="Path_720" data-name="Path 720" d="M251.662,286.958l-2.056,2.216v-5.462a.5.5,0,1,0-1,0v5.462l-2.071-2.216a.5.5,0,0,0-.71-.025.5.5,0,0,0-.025.705l2.926,3.146a.5.5,0,0,0,.73,0l2.931-3.146a.5.5,0,1,0-.725-.68Zm0,0" transform="translate(-234.15 -269.935)" fill="#fff"/>
</svg>
