<svg xmlns="http://www.w3.org/2000/svg" width="143.329" height="119.741" viewBox="0 0 143.329 119.741">
  <path id="team" d="M30.429,139.439a45.988,45.988,0,0,0-5.963-1.06c3.088-2.115,5.187-6.223,5.187-10.934,0-6.33-3.808-10.263-9.938-10.263s-9.936,3.932-9.936,10.263c0,4.7,2.092,8.8,5.171,10.922a42.772,42.772,0,0,0-5.963,1.076C3.192,140.934,0,144.156,0,148.517v11.417a1.937,1.937,0,0,0,3.874,0V148.517c0-3.106,3.3-4.608,6.079-5.322a39.5,39.5,0,0,1,19.543,0c2.265.562,6.063,2,6.063,5.318v11.417a1.937,1.937,0,1,0,3.874,0V148.517c0-4.349-3.283-7.658-9-9.078ZM19.715,121.056c2.767,0,6.064,1.108,6.064,6.389,0,4.651-2.777,8.579-6.064,8.579s-6.063-3.929-6.063-8.579C13.653,122.165,16.95,121.056,19.715,121.056Zm62.661,18.383a45.939,45.939,0,0,0-5.961-1.06c3.087-2.115,5.187-6.223,5.187-10.934,0-6.33-3.808-10.263-9.938-10.263s-9.938,3.932-9.938,10.263c0,4.7,2.092,8.8,5.171,10.922a42.773,42.773,0,0,0-5.962,1.076c-5.8,1.49-8.987,4.713-8.987,9.073v11.417a1.937,1.937,0,0,0,3.874,0V148.517c0-3.106,3.3-4.609,6.079-5.322a39.495,39.495,0,0,1,19.541,0c2.265.562,6.063,2,6.063,5.318v11.417a1.937,1.937,0,1,0,3.874,0V148.517c0-4.349-3.282-7.658-9-9.078ZM71.664,121.056c2.767,0,6.064,1.108,6.064,6.389,0,4.651-2.777,8.579-6.064,8.579S65.6,132.1,65.6,127.445c0-5.28,3.3-6.389,6.064-6.389Zm62.661,18.383a46,46,0,0,0-5.962-1.06c3.087-2.115,5.187-6.223,5.187-10.934,0-6.33-3.807-10.263-9.936-10.263s-9.938,3.932-9.938,10.263c0,4.7,2.092,8.8,5.171,10.922a42.787,42.787,0,0,0-5.963,1.076c-5.8,1.491-8.987,4.713-8.987,9.073v11.417a1.937,1.937,0,1,0,3.874,0V148.517c0-3.106,3.3-4.608,6.079-5.322a39.5,39.5,0,0,1,19.543,0c2.265.562,6.063,2,6.063,5.318v11.417a1.937,1.937,0,1,0,3.874,0V148.517C143.328,144.168,140.046,140.859,134.325,139.439Zm-10.712-18.383c2.765,0,6.063,1.108,6.063,6.389,0,4.651-2.777,8.579-6.063,8.579s-6.064-3.929-6.064-8.579C117.549,122.165,120.846,121.056,123.613,121.056Zm-62.081-9.95a1.937,1.937,0,1,0,3.874,0c0-4.349-3.282-7.658-9-9.078a46,46,0,0,0-5.962-1.06c3.089-2.115,5.188-6.223,5.188-10.934,0-6.33-3.808-10.263-9.938-10.263S35.753,83.7,35.753,90.035c0,4.7,2.093,8.8,5.172,10.922a42.741,42.741,0,0,0-5.962,1.076c-5.8,1.49-8.99,4.712-8.99,9.073a1.937,1.937,0,1,0,3.874,0c0-3.107,3.306-4.609,6.081-5.322a39.465,39.465,0,0,1,19.541,0c2.265.562,6.063,2,6.063,5.318ZM45.69,83.646c2.767,0,6.064,1.108,6.064,6.389,0,4.65-2.777,8.578-6.064,8.578s-6.064-3.929-6.064-8.578C39.626,84.755,42.924,83.646,45.69,83.646Zm67.79,27.46a1.937,1.937,0,1,0,3.874,0c0-4.349-3.282-7.657-9-9.078a46.019,46.019,0,0,0-5.962-1.059c3.089-2.115,5.188-6.223,5.188-10.935,0-6.33-3.808-10.263-9.938-10.263S87.7,83.7,87.7,90.035c0,4.7,2.093,8.8,5.172,10.922a42.7,42.7,0,0,0-5.961,1.076c-5.8,1.489-8.988,4.712-8.988,9.073a1.937,1.937,0,1,0,3.874,0c0-3.107,3.3-4.609,6.079-5.322a39.465,39.465,0,0,1,19.541,0c2.265.562,6.064,2,6.064,5.317ZM97.638,83.646c2.767,0,6.064,1.108,6.064,6.389,0,4.65-2.777,8.578-6.064,8.578s-6.064-3.929-6.064-8.578C91.574,84.755,94.871,83.646,97.638,83.646ZM53.884,75.4a1.937,1.937,0,0,0,1.937-1.937c0-3.107,3.306-4.609,6.081-5.322a39.465,39.465,0,0,1,19.541,0c2.265.561,6.063,2,6.063,5.317a1.937,1.937,0,0,0,3.874,0c0-4.351-3.282-7.659-9-9.078a46,46,0,0,0-5.962-1.06C79.5,61.212,81.6,57.1,81.6,52.393c0-6.33-3.808-10.263-9.938-10.263s-9.938,3.932-9.938,10.263c0,4.7,2.093,8.8,5.172,10.922a42.74,42.74,0,0,0-5.962,1.076c-5.8,1.49-8.99,4.712-8.99,9.073A1.937,1.937,0,0,0,53.884,75.4ZM71.664,46c2.767,0,6.064,1.108,6.064,6.389,0,4.65-2.777,8.578-6.064,8.578S65.6,57.042,65.6,52.393C65.6,47.112,68.9,46,71.664,46Zm62.661,18.383a45.991,45.991,0,0,0-5.962-1.06c3.087-2.115,5.186-6.222,5.186-10.934,0-6.33-3.807-10.263-9.936-10.263s-9.938,3.932-9.938,10.263c0,4.7,2.092,8.8,5.171,10.922a42.735,42.735,0,0,0-5.963,1.076c-5.8,1.491-8.987,4.714-8.987,9.073a1.937,1.937,0,0,0,3.874,0c0-3.106,3.3-4.608,6.079-5.322a39.484,39.484,0,0,1,19.543,0c2.265.562,6.063,2,6.063,5.318V84.881a1.937,1.937,0,1,0,3.874,0V73.465c0-4.349-3.283-7.658-9-9.078ZM123.613,46c2.765,0,6.063,1.108,6.063,6.389,0,4.651-2.777,8.579-6.063,8.579s-6.064-3.929-6.064-8.579C117.549,47.112,120.846,46,123.613,46ZM1.937,86.818a1.937,1.937,0,0,0,1.937-1.937V73.464c0-3.106,3.3-4.608,6.079-5.322a39.483,39.483,0,0,1,19.543,0c2.265.562,6.063,2,6.063,5.318a1.937,1.937,0,1,0,3.874,0c0-4.349-3.282-7.658-9-9.078a45.971,45.971,0,0,0-5.962-1.06c3.087-2.115,5.187-6.223,5.187-10.934,0-6.33-3.808-10.263-9.938-10.263S9.779,46.063,9.779,52.393c0,4.7,2.092,8.8,5.171,10.922a42.771,42.771,0,0,0-5.963,1.076C3.192,65.882,0,69.1,0,73.464V84.881a1.937,1.937,0,0,0,1.937,1.937ZM19.715,46c2.767,0,6.064,1.108,6.064,6.389,0,4.651-2.777,8.579-6.064,8.579s-6.063-3.929-6.063-8.579c0-5.28,3.3-6.389,6.063-6.389Z" transform="translate(0 -42.13)" fill="#265c3b"/>
</svg>
