<svg xmlns="http://www.w3.org/2000/svg" width="39.065" height="29.603" viewBox="0 0 39.065 29.603">
  <g id="Group_676" data-name="Group 676" transform="translate(-328.159 -14.829)">
    <path id="Path_691" data-name="Path 691" d="M360.072,14.829a7.165,7.165,0,0,0-6.936,5.4H331.017a2.847,2.847,0,0,0-1.991.807v0l-.006.005a2.84,2.84,0,0,0-.86,2.044V41.574a2.863,2.863,0,0,0,.9,2.085l0,0a2.845,2.845,0,0,0,1.951.77h26.961a2.843,2.843,0,0,0,1.945-.765l.011-.01a2.867,2.867,0,0,0,.9-2.083V29.093a7.152,7.152,0,0,0-.763-14.264ZM331.017,21.76h21.907c0,.074,0,.147,0,.221a7.113,7.113,0,0,0,1.052,3.732L345,34.2h-1L330.851,21.771a1.3,1.3,0,0,1,.166-.011Zm-1.332,1.332a1.356,1.356,0,0,1,.032-.293l10.689,10.1-10.662,9.066a1.33,1.33,0,0,1-.059-.4Zm28.293,19.814H331l10.523-8.947,1.65,1.559a.762.762,0,0,0,.524.208h1.6a.765.765,0,0,0,.525-.208l1.649-1.559L358,42.906Zm1.331-1.332a1.363,1.363,0,0,1-.058.4L348.589,32.9l6.322-5.976a7.135,7.135,0,0,0,4.4,2.166Zm.763-13.967a5.626,5.626,0,1,1,5.626-5.626A5.633,5.633,0,0,1,360.072,27.607Z" fill="#fff"/>
    <path id="Path_692" data-name="Path 692" d="M360.329,19.538h-.816a.763.763,0,1,0,0,1.526h.053v3.051a.763.763,0,1,0,1.526,0V20.3A.762.762,0,0,0,360.329,19.538Z" fill="#fff"/>
  </g>
</svg>
