<svg id="Group_2933" data-name="Group 2933" xmlns="http://www.w3.org/2000/svg" xmlns:xlink="http://www.w3.org/1999/xlink" width="38.6" height="28.951" viewBox="0 0 38.6 28.951">
  <defs>
    <clipPath id="clip-path">
      <rect id="Rectangle_991" data-name="Rectangle 991" width="38.6" height="28.951" fill="#f5f5f5"/>
    </clipPath>
  </defs>
  <g id="Group_2932" data-name="Group 2932" clip-path="url(#clip-path)">
    <path id="Path_1282" data-name="Path 1282" d="M38.6,2.791V26.162a1.162,1.162,0,0,0-.055.135,3.218,3.218,0,0,1-3.461,2.654H3.547a3.236,3.236,0,0,1-3.5-2.659c-.006-.021-.031-.037-.048-.055V2.715C.016,2.7.041,2.681.047,2.66A3.234,3.234,0,0,1,3.547,0h18.84q6.462,0,12.924,0a3.2,3.2,0,0,1,3.215,2.541c.02.083.049.164.074.247m-2.3-.837A1.819,1.819,0,0,0,35.053,1.6H3.47a1.576,1.576,0,0,0-1.162.357L19.3,17.41l17-15.456M2.3,27a1.828,1.828,0,0,0,1.25.35H35.126a1.6,1.6,0,0,0,1.168-.358L23.724,15.564l-3.735,3.394a.855.855,0,0,1-1.377,0Q16.9,17.4,15.183,15.839c-.1-.089-.2-.171-.316-.265L2.3,27m-.684-1.554L13.682,14.476,1.616,3.508ZM36.977,3.516,24.92,14.476,36.977,25.435Z" transform="translate(0 0)" fill="#f5f5f5"/>
  </g>
</svg>
