<svg xmlns="http://www.w3.org/2000/svg" xmlns:xlink="http://www.w3.org/1999/xlink" width="32.67" height="24.2" viewBox="0 0 32.67 24.2">
  <defs>
    <clipPath id="clip-path">
      <rect id="Rectangle_992" data-name="Rectangle 992" width="32.67" height="24.2" transform="translate(0 0)" fill="none"/>
    </clipPath>
  </defs>
  <g id="Group_2933" data-name="Group 2933" transform="translate(0 0)">
    <g id="Group_2932" data-name="Group 2932" clip-path="url(#clip-path)">
      <path id="Path_1283" data-name="Path 1283" d="M32.52,11.85c-.2.02-.41.03-.61.03m-.76-.02v9.48a1.29,1.29,0,0,1-.06.4L20.43,12.67l6.32-5.98a5.954,5.954,0,0,1-.46-.54,5.35,5.35,0,0,1-.47-.67l-8.98,8.49h-1L2.69,1.54a.97.97,0,0,1,.17-.01H24.77A6.417,6.417,0,0,1,24.98,0H2.86A2.849,2.849,0,0,0,.87.81H.86A2.875,2.875,0,0,0,0,2.86V21.34a2.89,2.89,0,0,0,.9,2.09,2.84,2.84,0,0,0,1.95.77H29.82a2.815,2.815,0,0,0,1.94-.77l.01-.01a2.829,2.829,0,0,0,.9-2.08V11.86M1.53,21.34V2.86a1.428,1.428,0,0,1,.03-.29l10.69,10.1L1.59,21.74a1.386,1.386,0,0,1-.06-.4m1.31,1.34,10.53-8.95,1.65,1.56a.779.779,0,0,0,.52.21h1.6a.8.8,0,0,0,.53-.21l1.64-1.56,10.53,8.95Z" fill="#fff"/>
    </g>
  </g>
</svg>
