<svg id="Group_2933" data-name="Group 2933" xmlns="http://www.w3.org/2000/svg" xmlns:xlink="http://www.w3.org/1999/xlink" width="31.8" height="23.851" viewBox="0 0 31.8 23.851">
  <defs>
    <clipPath id="clip-path">
      <rect id="Rectangle_991" data-name="Rectangle 991" width="31.8" height="23.851" fill="#f5f5f5"/>
    </clipPath>
  </defs>
  <g id="Group_2932" data-name="Group 2932" clip-path="url(#clip-path)">
    <path id="Path_1282" data-name="Path 1282" d="M31.8,2.3V21.553a.957.957,0,0,0-.045.111A2.651,2.651,0,0,1,28.9,23.851H2.922A2.666,2.666,0,0,1,.039,21.66c0-.017-.026-.03-.039-.045V2.237c.013-.015.034-.028.039-.046A2.665,2.665,0,0,1,2.922,0H18.443q5.324,0,10.647,0A2.637,2.637,0,0,1,31.739,2.1c.016.069.041.135.061.2M29.907,1.61a1.5,1.5,0,0,0-1.029-.289H2.859a1.3,1.3,0,0,0-.957.295l14,12.727L29.907,1.61M1.894,22.243a1.506,1.506,0,0,0,1.03.289H28.938a1.322,1.322,0,0,0,.962-.295L19.545,12.823l-3.077,2.8a.7.7,0,0,1-1.135,0l-2.825-2.569c-.081-.074-.168-.141-.26-.218L1.894,22.243m-.563-1.28,9.941-9.037L1.331,2.89ZM30.463,2.9l-9.933,9.03,9.933,9.028Z" transform="translate(0 0)" fill="#f5f5f5"/>
  </g>
</svg>
