<?xml version="1.0" encoding="UTF-8"?>
<svg id="Group_7" data-name="Group 7" xmlns="http://www.w3.org/2000/svg" viewBox="0 0 95.59 95.59">
  <defs>
    <style>
      .cls-1 {
        fill: #186b3f;
      }
    </style>
  </defs>
  <g id="Safe_excercise_health_care" data-name="Safe excercise health care">
    <path id="Path_211" data-name="Path 211" class="cls-1" d="M88.39,41.59h-.67v-5.04c.03-1.9-1.49-3.45-3.38-3.48h-4.06c-.27,0-.54,.04-.81,.1v-.3c.03-1.9-1.49-3.45-3.38-3.48h-4.06c-1.9,.03-3.41,1.59-3.38,3.48v8.88c0,.39-.31,.72-.7,.72H27.65c-.39,0-.71-.33-.7-.72v-8.88c.03-1.9-1.49-3.45-3.38-3.48h-4.06c-1.9,.03-3.41,1.59-3.38,3.48v.3c-.26-.07-.53-.1-.81-.1h-4.06c-1.9,.03-3.41,1.59-3.38,3.48v5.04h-.67c-3.25,.02-5.9,2.61-5.99,5.85-.05,1.62,.55,3.2,1.66,4.38,1.09,1.17,2.61,1.83,4.21,1.83h.79v5.38c-.03,1.9,1.49,3.45,3.38,3.48h4.06c.27,0,.54-.04,.81-.1v.3c-.03,1.9,1.49,3.45,3.38,3.48h4.06c1.9-.03,3.41-1.59,3.38-3.48v-9.11c0-.39,.31-.72,.7-.72h40.29c.39,0,.71,.33,.7,.72v9.11c-.03,1.9,1.49,3.45,3.38,3.48h4.06c1.9-.03,3.41-1.59,3.38-3.48v-.3c.26,.07,.53,.1,.81,.1h4.06c1.9-.03,3.41-1.59,3.38-3.48v-5.37h.79c1.6,0,3.12-.67,4.21-1.83,1.11-1.19,1.7-2.76,1.66-4.38-.09-3.25-2.74-5.84-5.99-5.86ZM16.11,59.04c0,.45-.35,.82-.81,.83h-4.06c-.45,0-.81-.38-.81-.83v-22.49c0-.45,.35-.82,.81-.83h4.06c.45,0,.81,.38,.81,.83v22.49Zm8.25,3.68c0,.45-.35,.82-.81,.83h-4.06c-.45,0-.81-.38-.81-.83v-29.85c0-.45,.35-.82,.81-.83h4.06c.45,0,.81,.38,.81,.83v29.85Zm52.53-26.17v26.17c0,.45-.35,.82-.81,.83h-4.06c-.45,0-.81-.38-.81-.83v-29.85c0-.45,.35-.82,.81-.83h4.06c.45,0,.81,.38,.81,.83v3.68Zm8.25,6.36v16.12c0,.45-.35,.82-.81,.83h-4.06c-.45,0-.81-.38-.81-.83v-22.49c0-.45,.35-.82,.81-.83h4.06c.45,0,.81,.38,.81,.83v6.36Z"/>
  </g>
</svg>