<svg xmlns="http://www.w3.org/2000/svg" width="36.601" height="39.925" viewBox="0 0 36.601 39.925">
  <g id="Group_2430" data-name="Group 2430" transform="translate(-3.327 -0.002)">
    <g id="Group_2411" data-name="Group 2411" transform="translate(8.508 5.08)">
      <g id="Group_2410" data-name="Group 2410">
        <path id="Path_1105" data-name="Path 1105" d="M6.345,18.912a.833.833,0,0,1-.8-.592,10.238,10.238,0,0,1-.434-2.951A10.448,10.448,0,0,1,6.2,10.775a10.326,10.326,0,0,1,6.7-5.38L22,3.082a.831.831,0,1,1,.409,1.61L13.3,7.005a8.664,8.664,0,0,0-5.617,4.51,8.758,8.758,0,0,0-.91,3.853,8.6,8.6,0,0,0,.363,2.474.832.832,0,0,1-.557,1.036.912.912,0,0,1-.238.033Z" transform="translate(-5.114 -3.054)" fill="#f5f5f5"/>
      </g>
    </g>
    <g id="Group_2429" data-name="Group 2429">
      <g id="Group_2409" data-name="Group 2409" transform="translate(23.866 0.002)">
        <g id="Group_2408" data-name="Group 2408">
          <path id="Path_1104" data-name="Path 1104" d="M26.029,16.116H26.02a2.484,2.484,0,0,1-1.767-.74l-9.19-9.3a2.5,2.5,0,0,1,.012-3.519l1.83-1.83a2.5,2.5,0,0,1,3.529,0l9.243,9.242a2.5,2.5,0,0,1,0,3.53l-1.883,1.883A2.488,2.488,0,0,1,26.029,16.116ZM18.669,1.662a.829.829,0,0,0-.589.243l-1.83,1.83a.834.834,0,0,0,0,1.173l9.19,9.3a.824.824,0,0,0,.589.246,1.192,1.192,0,0,0,.591-.245L28.5,12.323a.834.834,0,0,0,0-1.178L19.254,1.9a.827.827,0,0,0-.586-.241Zm-3,1.486h.017Z" transform="translate(-14.345 -0.002)" fill="#f5f5f5"/>
        </g>
      </g>
      <g id="Group_2413" data-name="Group 2413" transform="translate(14.778 13.502)">
        <g id="Group_2412" data-name="Group 2412">
          <path id="Path_1106" data-name="Path 1106" d="M12.794,27.042A3.733,3.733,0,0,1,9.562,25.2a3.871,3.871,0,0,1,.687-4.692l5.874-5.884a3.478,3.478,0,0,0-5.685.511.833.833,0,0,1-1.447-.825,5.143,5.143,0,0,1,8.641-.453l.26.361a.833.833,0,0,1-.073,1.06l-6.4,6.405a2.237,2.237,0,0,0-.436,2.665,2.167,2.167,0,0,0,3.312.408l7.224-7.337L27.315,8.5a.83.83,0,1,1,1.393.905l-5.838,9a.8.8,0,0,1-.1.133l-7.285,7.4a3.76,3.76,0,0,1-2.685,1.113Z" transform="translate(-8.883 -8.116)" fill="#f5f5f5"/>
        </g>
      </g>
      <g id="Group_2414" data-name="Group 2414" transform="translate(3.327 19.963)">
        <path id="Path_1107" data-name="Path 1107" d="M24.488,31.964H2.832A.832.832,0,0,1,2,31.132v-18.3A.832.832,0,0,1,2.832,12H21.084a.832.832,0,1,1,0,1.664H3.664V30.3H23.656V17.66a.832.832,0,0,1,1.664,0V31.132A.832.832,0,0,1,24.488,31.964Z" transform="translate(-2 -12)" fill="#f5f5f5"/>
      </g>
    </g>
  </g>
</svg>
