<svg xmlns="http://www.w3.org/2000/svg" width="30.022" height="30.022" viewBox="0 0 30.022 30.022">
  <g id="Group_657" data-name="Group 657" transform="translate(0)">
    <path id="Path_644" data-name="Path 644" d="M1893.783,208.2h-20.114a5.031,5.031,0,0,1-4.954-5.014V192.225a4.918,4.918,0,0,1,1.651-3.662l10.057-9.127a4.956,4.956,0,0,1,6.6,0l10.058,9.127a4.874,4.874,0,0,1,1.651,3.662v10.958A5.03,5.03,0,0,1,1893.783,208.2Zm-10.057-26.93a2.424,2.424,0,0,0-1.351.451l-10.057,9.126a1.765,1.765,0,0,0-.6,1.531v10.958a2.014,2.014,0,0,0,1.952,1.982h19.964a1.993,1.993,0,0,0,1.951-1.982V192.375a2.853,2.853,0,0,0-.6-1.531l-10.057-9.126A1.708,1.708,0,0,0,1883.726,181.267Z" transform="translate(-1868.715 -178.175)" fill="#fff"/>
  </g>
</svg>
