<svg xmlns="http://www.w3.org/2000/svg" xmlns:xlink="http://www.w3.org/1999/xlink" width="135.653" height="135.653" viewBox="0 0 135.653 135.653">
  <defs>
    <clipPath id="clip-path">
      <path id="path1329" d="M0-682.665H135.653v135.653H0Z" transform="translate(0 682.665)" fill="#265c3b"/>
    </clipPath>
  </defs>
  <g id="g1323" transform="translate(0 682.665)">
    <g id="g1325" transform="translate(0 -682.665)">
      <g id="g1327" clip-path="url(#clip-path)">
        <g id="g1333" transform="translate(0.253 15.072)">
          <path id="path1335" d="M-243.131-472.9a60.36,60.36,0,0,1-60.294-60.291,60.36,60.36,0,0,1,60.294-60.29,60.36,60.36,0,0,1,60.293,60.29A60.36,60.36,0,0,1-243.131-472.9Zm0-115.282a55.055,55.055,0,0,0-54.995,54.992A55.056,55.056,0,0,0-243.131-478.2a55.055,55.055,0,0,0,54.994-54.992A55.055,55.055,0,0,0-243.131-588.186Z" transform="translate(303.425 593.485)" fill="#265c3b"/>
        </g>
        <g id="g1337" transform="translate(14.22 29.037)">
          <path id="path1339" d="M-112.326,66.327A46.378,46.378,0,0,1-158.653,20a45.935,45.935,0,0,1,8.895-27.268,2.649,2.649,0,0,1,3.7-.577,2.649,2.649,0,0,1,.577,3.7A40.67,40.67,0,0,0-153.354,20a41.073,41.073,0,0,0,41.028,41.026A41.074,41.074,0,0,0-71.3,20a41.074,41.074,0,0,0-41.028-41.026,40.8,40.8,0,0,0-13.9,2.424,2.649,2.649,0,0,1-3.392-1.592,2.649,2.649,0,0,1,1.592-3.392,46.08,46.08,0,0,1,15.7-2.739A46.379,46.379,0,0,1-66,20,46.379,46.379,0,0,1-112.326,66.327Z" transform="translate(158.653 26.323)" fill="#265c3b"/>
        </g>
        <g id="g1341" transform="translate(34.884 40.04)">
          <path id="path1343" transform="translate(0)" fill="#265c3b"/>
        </g>
        <g id="g1345" transform="translate(28.186 43.003)">
          <path id="path1347" d="M-198.412-231.306a32.4,32.4,0,0,1-32.361-32.359,32.4,32.4,0,0,1,32.361-32.359,32.4,32.4,0,0,1,32.36,32.359,32.241,32.241,0,0,1-1.641,10.182,2.649,2.649,0,0,1-3.35,1.679,2.649,2.649,0,0,1-1.679-3.35,26.952,26.952,0,0,0,1.371-8.512,27.091,27.091,0,0,0-27.061-27.06,27.092,27.092,0,0,0-27.062,27.06,27.092,27.092,0,0,0,27.062,27.06,26.713,26.713,0,0,0,12.289-2.954,2.649,2.649,0,0,1,3.566,1.151,2.649,2.649,0,0,1-1.151,3.566A32.407,32.407,0,0,1-198.412-231.306Z" transform="translate(230.773 296.025)" fill="#265c3b"/>
        </g>
        <g id="g1349" transform="translate(83.303 94.443)">
          <path id="path1351" fill="#265c3b"/>
        </g>
        <g id="g1353" transform="translate(42.152 56.969)">
          <path id="path1355" d="M-153.409-92.564A18.415,18.415,0,0,1-135.015-74.17a18.415,18.415,0,0,1-18.394,18.393A18.415,18.415,0,0,1-171.8-74.17,18.415,18.415,0,0,1-153.409-92.564Zm0,31.488a13.11,13.11,0,0,0,13.1-13.094,13.11,13.11,0,0,0-13.1-13.094A13.11,13.11,0,0,0-166.5-74.17,13.11,13.11,0,0,0-153.409-61.076Z" transform="translate(171.804 92.564)" fill="#265c3b"/>
        </g>
        <g id="g1357" transform="translate(58.213 22.109)">
          <path id="path1359" d="M-261.309,41.765a2.641,2.641,0,0,1-1.874-.776,2.649,2.649,0,0,1,0-3.747l49.8-49.8a2.649,2.649,0,0,1,3.747,0,2.649,2.649,0,0,1,0,3.747l-49.8,49.8A2.641,2.641,0,0,1-261.309,41.765Z" transform="translate(263.958 13.333)" fill="#265c3b"/>
        </g>
        <g id="g1361" transform="translate(98.242 0)">
          <path id="path1363" d="M-66.693-13.334a2.646,2.646,0,0,1,.921.166,2.649,2.649,0,0,1,1.72,2.286L-62.8,5.836a2.649,2.649,0,0,1-.767,2.07l-14.879,14.9a2.649,2.649,0,0,1-2.866.585,2.649,2.649,0,0,1-1.658-2.41l-.262-14.7a10.711,10.711,0,0,1,3.12-7.3l11.545-11.545A2.649,2.649,0,0,1-66.693-13.334ZM-68.175,5.02-68.9-4.726l-7.461,7.461a5.356,5.356,0,0,0-1.57,3.6l.15,8.309Z" transform="translate(83.232 13.334)" fill="#265c3b"/>
        </g>
        <g id="g1365" transform="translate(98.503 16.717)">
          <path id="path1367" d="M-154.818-19.627q.1,0,.2.007l16.718,1.251a2.649,2.649,0,0,1,2.286,1.72,2.649,2.649,0,0,1-.611,2.8L-147.772-2.308A10.64,10.64,0,0,1-154.928.81L-169.74.575a2.649,2.649,0,0,1-2.413-1.654,2.649,2.649,0,0,1,.581-2.867l14.879-14.9A2.65,2.65,0,0,1-154.818-19.627Zm10.76,6.111-9.745-.729-9.606,9.622,8.427.136a5.3,5.3,0,0,0,3.464-1.569Z" transform="translate(172.347 19.627)" fill="#265c3b"/>
        </g>
      </g>
    </g>
  </g>
</svg>
