<svg id="enter" xmlns="http://www.w3.org/2000/svg" width="30.298" height="30.298" viewBox="0 0 30.298 30.298">
  <path id="Path_1110" data-name="Path 1110" d="M12.94,209.894H.947a.947.947,0,1,1,0-1.894H12.94a.947.947,0,1,1,0,1.894Zm0,0" transform="translate(0 -195.691)" fill="#fff"/>
  <path id="Path_1111" data-name="Path 1111" d="M123.618,139.347a.947.947,0,0,1-.669-1.617l4.065-4.065-4.065-4.064a.947.947,0,0,1,1.34-1.34L129.023,133a.947.947,0,0,1,0,1.34l-4.734,4.734A.945.945,0,0,1,123.618,139.347Zm0,0" transform="translate(-115.413 -120.411)" fill="#fff"/>
  <path id="Path_1112" data-name="Path 1112" d="M301.193,30.376a2.527,2.527,0,0,1-2.525-2.525V5.128a2.541,2.541,0,0,1,1.709-2.4L307.962.2a2.551,2.551,0,0,1,3.33,2.4V25.327a2.542,2.542,0,0,1-1.708,2.4L302,30.253A2.641,2.641,0,0,1,301.193,30.376Zm7.575-28.4a.742.742,0,0,0-.226.033l-7.553,2.518a.651.651,0,0,0-.427.6V27.851a.665.665,0,0,0,.857.6l7.553-2.518a.653.653,0,0,0,.427-.6V2.6A.632.632,0,0,0,308.767,1.972Zm0,0" transform="translate(-280.994 -0.078)" fill="#fff"/>
  <path id="Path_1113" data-name="Path 1113" d="M171.615,6.312a.947.947,0,0,1-.947-.947V3.472A3.474,3.474,0,0,1,174.14,0h14.2a.947.947,0,0,1,0,1.894h-14.2a1.58,1.58,0,0,0-1.578,1.578V5.365A.947.947,0,0,1,171.615,6.312Zm0,0" transform="translate(-160.568 0)" fill="#fff"/>
  <path id="Path_1114" data-name="Path 1114" d="M179.189,347.644h-5.05a3.474,3.474,0,0,1-3.472-3.472v-1.894a.947.947,0,0,1,1.894,0v1.894a1.58,1.58,0,0,0,1.578,1.578h5.05a.947.947,0,1,1,0,1.894Zm0,0" transform="translate(-160.568 -321.133)" fill="#fff"/>
</svg>
