<svg id="Group_2935" data-name="Group 2935" xmlns="http://www.w3.org/2000/svg" xmlns:xlink="http://www.w3.org/1999/xlink" width="34.962" height="35.036" viewBox="0 0 34.962 35.036">
  <defs>
    <clipPath id="clip-path">
      <rect id="Rectangle_992" data-name="Rectangle 992" width="34.962" height="35.036" fill="#f5f5f5"/>
    </clipPath>
  </defs>
  <g id="Group_2934" data-name="Group 2934" clip-path="url(#clip-path)">
    <path id="Path_1283" data-name="Path 1283" d="M12.469,30.036h-.49q-5.29,0-10.58,0a1.279,1.279,0,0,1-1.362-.987,1.332,1.332,0,0,1,.227-1.072c1.037-1.7,2.077-3.393,3.1-5.1a1.608,1.608,0,0,0,.214-.759c.065-3.213.072-6.429.192-9.64A9.228,9.228,0,0,1,4.38,9.911a13.91,13.91,0,0,1,7.092-8.428,12.4,12.4,0,0,1,11.77,0,11.918,11.918,0,0,1,5.107,5.674,20.811,20.811,0,0,1,1.61,5.075,1.791,1.791,0,0,1,.019.311c.053,3.188.1,6.375.165,9.563a.917.917,0,0,0,.194.518c1.429,1.773,2.875,3.531,4.3,5.3a1.251,1.251,0,0,1-.676,2.076,2.523,2.523,0,0,1-.505.027q-5.231,0-10.462,0h-.5A5.042,5.042,0,0,1,20.4,34.084a4.817,4.817,0,0,1-3.307.935,5.042,5.042,0,0,1-4.629-4.983m-8.982-2.52H31.066c-.126-.165-.222-.3-.325-.424-.886-1.09-1.766-2.185-2.664-3.265a1.842,1.842,0,0,1-.438-1.214c-.04-2.81-.138-5.62-.124-8.429a13.318,13.318,0,0,0-.908-4.714,10.944,10.944,0,0,0-3.449-5.057,9.269,9.269,0,0,0-8.137-1.573A11.049,11.049,0,0,0,7.178,9.6a10.667,10.667,0,0,0-.966,4.531c.033,2.809-.048,5.62-.072,8.43a2.214,2.214,0,0,1-.355,1.211C5.081,24.88,4.4,26,3.713,27.121c-.072.118-.137.24-.226.4m11.533,2.539a2.466,2.466,0,1,0,4.932,0Z" transform="translate(0 0)" fill="#f5f5f5"/>
  </g>
</svg>
