<svg id="Group_2935" data-name="Group 2935" xmlns="http://www.w3.org/2000/svg" xmlns:xlink="http://www.w3.org/1999/xlink" width="28.229" height="28.288" viewBox="0 0 28.229 28.288">
  <defs>
    <clipPath id="clip-path">
      <rect id="Rectangle_992" data-name="Rectangle 992" width="28.229" height="28.288" fill="#f5f5f5"/>
    </clipPath>
  </defs>
  <g id="Group_2934" data-name="Group 2934" clip-path="url(#clip-path)">
    <path id="Path_1283" data-name="Path 1283" d="M10.068,24.252h-.4q-4.271,0-8.542,0a1.033,1.033,0,0,1-1.1-.8,1.075,1.075,0,0,1,.183-.865c.837-1.371,1.677-2.74,2.5-4.118a1.3,1.3,0,0,0,.173-.613c.053-2.595.058-5.191.155-7.783A7.45,7.45,0,0,1,3.537,8,11.231,11.231,0,0,1,9.262,1.2a10.016,10.016,0,0,1,9.5,0,9.622,9.622,0,0,1,4.123,4.581,16.8,16.8,0,0,1,1.3,4.1,1.446,1.446,0,0,1,.015.251c.043,2.574.082,5.148.133,7.721a.74.74,0,0,0,.156.418c1.153,1.431,2.321,2.851,3.475,4.282a1.01,1.01,0,0,1-.546,1.676,2.037,2.037,0,0,1-.408.022H18.167a4.071,4.071,0,0,1-1.691,3.268,3.889,3.889,0,0,1-2.67.755,4.071,4.071,0,0,1-3.737-4.023M2.815,22.217H25.083c-.1-.133-.179-.24-.263-.342-.715-.88-1.426-1.765-2.151-2.636a1.487,1.487,0,0,1-.353-.98c-.032-2.269-.111-4.537-.1-6.806a10.753,10.753,0,0,0-.733-3.806A8.836,8.836,0,0,0,18.7,3.564a7.484,7.484,0,0,0-6.57-1.27A8.921,8.921,0,0,0,5.8,7.751a8.613,8.613,0,0,0-.78,3.658c.027,2.268-.039,4.537-.058,6.806a1.788,1.788,0,0,1-.287.978C4.1,20.089,3.553,21,3,21.9c-.058.095-.111.194-.182.319m9.312,2.05a1.991,1.991,0,1,0,3.983,0Z" transform="translate(0 0)" fill="#f5f5f5"/>
  </g>
</svg>
