<svg xmlns="http://www.w3.org/2000/svg" width="25.019" height="26.043" viewBox="0 0 25.019 26.043">
  <g id="Group_2929" data-name="Group 2929" transform="translate(-271.391 -18.683)">
    <path id="Path_685" data-name="Path 685" d="M283.9,44.726a4.7,4.7,0,0,1-4.691-4.691.938.938,0,0,1,1.876,0,2.814,2.814,0,1,0,5.629,0,.938.938,0,0,1,1.876,0A4.7,4.7,0,0,1,283.9,44.726Z" fill="#fff"/>
    <path id="Path_686" data-name="Path 686" d="M294.221,40.973h-20.64a2.189,2.189,0,0,1-1.424-3.853.928.928,0,0,1,.1-.075,8.406,8.406,0,0,0,2.887-6.342v-3.49a8.7,8.7,0,0,1,6.714-8.506.938.938,0,1,1,.433,1.826,6.83,6.83,0,0,0-5.27,6.68V30.7a10.29,10.29,0,0,1-3.632,7.845c-.019.015-.035.029-.055.042a.309.309,0,0,0-.066.194.317.317,0,0,0,.313.313h20.64a.316.316,0,0,0,.312-.313.3.3,0,0,0-.067-.194.555.555,0,0,1-.054-.042,10.2,10.2,0,0,1-2.628-3.429.938.938,0,1,1,1.7-.8,8.357,8.357,0,0,0,2.067,2.732,1.188,1.188,0,0,1,.1.071,2.188,2.188,0,0,1-1.421,3.853Z" fill="#fff"/>
  </g>
</svg>
