<svg xmlns="http://www.w3.org/2000/svg" xmlns:xlink="http://www.w3.org/1999/xlink" width="196.998" height="228.276" viewBox="0 0 196.998 228.276">
  <defs>
    <clipPath id="clip-path">
      <rect id="Rectangle_753" data-name="Rectangle 753" width="173.319" height="228.276" fill="#646d71"/>
    </clipPath>
  </defs>
  <g id="Group_2432" data-name="Group 2432" transform="translate(-15 -24.752)">
    <g id="Group_2383" data-name="Group 2383" transform="translate(15 24.752)">
      <rect id="Rectangle_750" data-name="Rectangle 750" width="117.647" height="14.471" transform="translate(27.637 106.769)" fill="#adbcc3"/>
      <rect id="Rectangle_751" data-name="Rectangle 751" width="117.647" height="14.471" transform="translate(27.637 83.779)" fill="#adbcc3"/>
      <path id="Path_1093" data-name="Path 1093" d="M66.119,312.833v14.473l117.647-.165V312.833Z" transform="translate(-38.482 -182.071)" fill="#adbcc3"/>
      <path id="Path_1094" data-name="Path 1094" d="M267.13,350.981l2.747-3.123h-5.613Z" transform="translate(-153.803 -202.455)" fill="#fff"/>
      <g id="Group_2382" data-name="Group 2382">
        <g id="Group_2381" data-name="Group 2381" clip-path="url(#clip-path)">
          <path id="Path_1095" data-name="Path 1095" d="M171.893,1.428A4.915,4.915,0,0,0,168.444,0H4.875A4.871,4.871,0,0,0,0,4.874V223.4a4.871,4.871,0,0,0,4.875,4.873H138.649a4.874,4.874,0,0,0,3.433-1.415l15.029-14.93.02-.02L171.9,197.083a4.891,4.891,0,0,0,1.422-3.44V4.874a4.916,4.916,0,0,0-1.427-3.447M137.43,218.7V193.643h25.962Zm26.14-63.6V183.9H132.555a4.881,4.881,0,0,0-4.878,4.873v29.759H9.747V9.748H163.57V155.1Z" transform="translate(0 -0.001)" fill="#646d71"/>
          <path id="Path_1096" data-name="Path 1096" d="M328.785,488.323l25.962-25.06H328.785Z" transform="translate(-191.354 -269.622)" fill="#f5f5f5"/>
          <rect id="Rectangle_752" data-name="Rectangle 752" width="100.506" height="14.471" transform="translate(44.779 58.949)" fill="#adbcc3"/>
        </g>
      </g>
    </g>
    <g id="Group_2388" data-name="Group 2388" transform="translate(138.002 38.615)">
      <path id="Path_615" data-name="Path 615" d="M1753.146,3913.906a3.146,3.146,0,0,1-3.083,3.189h-67.829a3.147,3.147,0,0,1-3.084-3.189v-31.9a3.147,3.147,0,0,1,3.084-3.189h67.829a3.146,3.146,0,0,1,3.083,3.189Z" transform="translate(-1679.15 -3878.821)" fill="#f15642"/>
      <g id="Group_585" data-name="Group 585" transform="translate(13.44 10.828)">
        <path id="Path_616" data-name="Path 616" d="M1692.59,3891.41a1.729,1.729,0,0,1,1.674-1.761h5.695c3.206,0,6.092,2.22,6.092,6.475a5.939,5.939,0,0,1-6.092,6.277h-4.116v3.368a1.579,1.579,0,0,1-1.579,1.758,1.69,1.69,0,0,1-1.674-1.758Zm3.253,1.451v6.354h4.116a3.185,3.185,0,0,0,0-6.354Z" transform="translate(-1692.59 -3889.649)" fill="#fff"/>
        <path id="Path_617" data-name="Path 617" d="M1710.879,3907.527a1.563,1.563,0,0,1-1.7-1.579v-14.487a1.7,1.7,0,0,1,1.7-1.582h5.645c11.266,0,11.02,17.648.222,17.648Zm1.554-14.535v11.425h4.091c6.657,0,6.953-11.425,0-11.425Z" transform="translate(-1692.59 -3889.649)" fill="#fff"/>
        <path id="Path_618" data-name="Path 618" d="M1731.539,3893.2v4.054h6.287a1.94,1.94,0,0,1,1.776,1.809,1.732,1.732,0,0,1-1.776,1.531h-6.287v5.355a1.488,1.488,0,0,1-1.477,1.579,1.587,1.587,0,0,1-1.748-1.579v-14.487a1.579,1.579,0,0,1,1.748-1.582h8.655a1.559,1.559,0,0,1,1.726,1.582,1.733,1.733,0,0,1-1.726,1.735h-7.178Z" transform="translate(-1692.59 -3889.649)" fill="#fff"/>
      </g>
    </g>
    <path id="Path_1098" data-name="Path 1098" d="M1473.812,4078.832a24.285,24.285,0,1,0,24.285,24.285A24.284,24.284,0,0,0,1473.812,4078.832Zm7.966,39.928h-15.933a2.023,2.023,0,1,1,0-4.047h15.933a2.023,2.023,0,1,1,0,4.047Zm1.431-15.222-7.973,7.977a2.023,2.023,0,0,1-2.861,0l-7.961-7.959a2.026,2.026,0,0,1,2.862-2.868l4.512,4.512v-17.9a2.023,2.023,0,1,1,4.047,0v17.892l4.512-4.512a2.024,2.024,0,0,1,2.862,2.862Z" transform="translate(-1416.578 -3891.764)" fill="#646d71"/>
  </g>
</svg>
