<svg id="Group_578" data-name="Group 578" xmlns="http://www.w3.org/2000/svg" width="73.996" height="38.274" viewBox="0 0 73.996 38.274">
  <path id="Path_610" data-name="Path 610" d="M1753.146,3690.543a3.146,3.146,0,0,1-3.083,3.19h-67.829a3.147,3.147,0,0,1-3.084-3.19v-31.9a3.147,3.147,0,0,1,3.084-3.189h67.829a3.146,3.146,0,0,1,3.083,3.189Z" transform="translate(-1679.15 -3655.459)" fill="#f15642"/>
  <g id="Group_577" data-name="Group 577" transform="translate(13.44 10.828)">
    <path id="Path_611" data-name="Path 611" d="M1692.59,3668.048a1.729,1.729,0,0,1,1.674-1.761h5.695c3.206,0,6.092,2.22,6.092,6.475a5.94,5.94,0,0,1-6.092,6.277h-4.116v3.368a1.578,1.578,0,0,1-1.579,1.757,1.689,1.689,0,0,1-1.674-1.757Zm3.253,1.451v6.353h4.116a3.184,3.184,0,0,0,0-6.353Z" transform="translate(-1692.59 -3666.287)" fill="#fff"/>
    <path id="Path_612" data-name="Path 612" d="M1710.879,3684.164a1.562,1.562,0,0,1-1.7-1.578V3668.1a1.7,1.7,0,0,1,1.7-1.582h5.645c11.266,0,11.02,17.647.222,17.647Zm1.554-14.534v11.425h4.091c6.657,0,6.953-11.425,0-11.425Z" transform="translate(-1692.59 -3666.287)" fill="#fff"/>
    <path id="Path_613" data-name="Path 613" d="M1731.539,3669.834v4.054h6.287a1.939,1.939,0,0,1,1.776,1.808,1.732,1.732,0,0,1-1.776,1.531h-6.287v5.355a1.488,1.488,0,0,1-1.477,1.579,1.587,1.587,0,0,1-1.748-1.579v-14.487a1.579,1.579,0,0,1,1.748-1.582h8.655a1.559,1.559,0,0,1,1.726,1.582,1.734,1.734,0,0,1-1.726,1.736h-7.178Z" transform="translate(-1692.59 -3666.287)" fill="#fff"/>
  </g>
</svg>
