<?xml version="1.0" encoding="UTF-8"?>
<svg id="Group_7" data-name="Group 7" xmlns="http://www.w3.org/2000/svg" viewBox="0 0 95.59 95.59">
  <defs>
    <style>
      .cls-1 {
        fill: #186b3f;
      }
    </style>
  </defs>
  <path id="Path_41" data-name="Path 41" class="cls-1" d="M83.31,41.33l-8.53-2.1c-.51-1.62-1.17-3.18-1.97-4.68,1.28-2.13,3.97-6.61,3.97-6.61,.51-.86,.38-1.95-.33-2.66l-6.16-6.15c-.71-.71-1.8-.84-2.66-.33l-6.62,3.97c-1.49-.79-3.05-1.44-4.65-1.95l-2.1-8.52c-.24-.97-1.11-1.65-2.11-1.65h-8.71c-1,0-1.87,.68-2.11,1.65,0,0-1.45,5.95-2.09,8.52-1.71,.54-3.37,1.25-4.94,2.1l-6.87-4.12c-.86-.51-1.95-.38-2.66,.33l-6.16,6.16c-.71,.71-.84,1.8-.33,2.66l4.25,7.1c-.68,1.35-1.26,2.76-1.72,4.2l-8.52,2.1c-.97,.24-1.64,1.11-1.65,2.1v8.71c0,1,.68,1.87,1.65,2.11l8.53,2.1c.52,1.65,1.19,3.24,2,4.76l-3.8,6.34c-.51,.86-.38,1.95,.33,2.66l6.16,6.16c.71,.7,1.8,.84,2.66,.33l6.35-3.81c1.51,.81,3.09,1.47,4.73,1.99l2.09,8.52c.24,.97,1.11,1.65,2.11,1.65h8.71c1,0,1.87-.68,2.11-1.65l2.09-8.52c1.67-.53,3.29-1.22,4.83-2.05l6.45,3.87c.86,.51,1.95,.38,2.66-.33l6.16-6.16c.71-.71,.84-1.8,.33-2.66l-3.91-6.52c.77-1.47,1.41-3,1.91-4.58l8.53-2.1c.97-.24,1.65-1.11,1.65-2.11v-8.71c0-1-.68-1.87-1.65-2.11Zm-35.51,21.71c-8.42,0-15.24-6.82-15.24-15.24s6.82-15.24,15.24-15.24,15.24,6.82,15.24,15.24c0,8.41-6.83,15.23-15.24,15.24Z"/>
</svg>