<?xml version="1.0" encoding="UTF-8"?>
<svg id="Layer_2" data-name="Layer 2" xmlns="http://www.w3.org/2000/svg" xmlns:xlink="http://www.w3.org/1999/xlink" viewBox="0 0 114 114">
  <defs>
    <style>
      .cls-1 {
        isolation: isolate;
      }

      .cls-2 {
        clip-path: url(#clippath-1);
      }

      .cls-3 {
        fill: #265c3b;
      }

      .cls-4 {
        clip-path: url(#clippath);
      }

      .cls-5 {
        fill: none;
      }
    </style>
    <clipPath id="clippath">
      <rect class="cls-5" width="113.78" height="113.78"/>
    </clipPath>
    <clipPath id="clippath-1">
      <rect class="cls-5" width="114" height="114"/>
    </clipPath>
  </defs>
  <g id="Layer_1-2" data-name="Layer 1">
    <g class="cls-4">
      <g class="cls-1">
        <g class="cls-2">
          <path class="cls-3" d="M96,25.5L56.89,9.26,17.78,25.5v19.02c0,26.15,15.29,49.51,39.11,60,23.82-10.49,39.11-33.84,39.11-60V25.5ZM56.89,0c.58,0,1.16,.11,1.7,.34l43.56,18.08c1.66,.69,2.74,2.31,2.74,4.1v21.98c0,30.39-18.18,57.45-46.32,68.94-1.08,.44-2.28,.44-3.36,0C27.07,101.96,8.89,74.9,8.89,44.51V22.53c0-1.8,1.08-3.42,2.74-4.1L55.19,.34c.55-.23,1.12-.34,1.7-.34Z"/>
          <path class="cls-3" d="M51.98,70.22c-1.14,0-2.27-.43-3.14-1.3l-12.42-12.42c-1.74-1.74-1.74-4.55,0-6.29,1.74-1.74,4.55-1.74,6.29,0l9.28,9.28,19.1-19.1c1.74-1.74,4.55-1.74,6.29,0,1.74,1.74,1.74,4.55,0,6.29l-22.25,22.25c-.87,.87-2.01,1.3-3.14,1.3Z"/>
        </g>
      </g>
    </g>
  </g>
</svg>