<svg xmlns="http://www.w3.org/2000/svg" width="152.024" height="152.024" viewBox="0 0 152.024 152.024">
  <path id="course" d="M5,154.9a2.095,2.095,0,0,0,2.128,2.128H154.9a2.095,2.095,0,0,0,2.128-2.128V144.372a20.489,20.489,0,0,0-12.686-18.919,13.209,13.209,0,1,0-15.81,0,20.591,20.591,0,0,0-10.557,9.932,20.608,20.608,0,0,0-10.574-9.915,13.209,13.209,0,1,0-15.81,0,20.591,20.591,0,0,0-10.574,9.9,20.608,20.608,0,0,0-10.574-9.915,13.192,13.192,0,0,0-6.757-23.648V90.032h79.711a2.111,2.111,0,0,0,2.111-2.111V78.478a2.111,2.111,0,0,0-2.111-2.111h-3.615a2.179,2.179,0,0,0,0-.321V7.128A2.1,2.1,0,0,0,137.734,5H45.793a2.095,2.095,0,0,0-2.111,2.128v15.2a15.2,15.2,0,0,0-8.969,26.2h-.794A17.55,17.55,0,0,0,16.4,66.131v39.29a13.142,13.142,0,0,0,1.284,20.016A20.506,20.506,0,0,0,5,144.372ZM136.416,105.91a7498452.894,7498452.894,0,1,0,.017-.017Zm0,22.2A16.3,16.3,0,0,1,152.7,144.389v8.446H120.065v-8.446a16.351,16.351,0,0,1,16.435-16.3ZM99.491,105.893a8.986,8.986,0,1,1-8.986,8.986A8.986,8.986,0,0,1,99.491,105.893Zm0,22.2a16.3,16.3,0,0,1,16.283,16.283v8.446H83.124v-8.446a16.351,16.351,0,0,1,16.469-16.283ZM78.9,144.372v8.446H46.182v-8.446a16.368,16.368,0,0,1,32.719,0ZM71.519,114.88a8.986,8.986,0,1,1-8.986-8.986,8.986,8.986,0,0,1,8.986,8.986Zm69.762-29.07H63.766V80.59h77.515ZM135.622,9.24V76.046a2.179,2.179,0,0,0,0,.321H63.766V65.81H77.448A2.111,2.111,0,0,0,79.137,65L92.008,48.344a8.682,8.682,0,0,0,1.807-6.571,8.581,8.581,0,0,0-3.53-5.828,8.817,8.817,0,0,0-11.993,1.926L69.745,48.546H55.675a15.2,15.2,0,0,0-7.8-26.013V9.24ZM34.273,37.567a4.576,4.576,0,1,1-.084,0ZM20.76,66.131A13.327,13.327,0,0,1,34.054,52.82H70.759a2.061,2.061,0,0,0,1.689-.794L81.62,40.557a4.645,4.645,0,0,1,6.149-1.132,4.409,4.409,0,0,1,.861,6.368L76.384,61.637H61.654a2.111,2.111,0,0,0-2.111,2.111v38.276a13.175,13.175,0,0,0-4.915,23.412,20.591,20.591,0,0,0-10.557,9.932,20.574,20.574,0,0,0-10.591-9.915,13.175,13.175,0,0,0,.709-20.591V67.5a2.111,2.111,0,0,0-4.223,0V102.43a12.939,12.939,0,0,0-4.375-.76,13.142,13.142,0,0,0-4.966.98Zm4.966,39.763a8.919,8.919,0,1,1-.135,0ZM9.24,144.372a16.368,16.368,0,0,1,32.719,0v8.446H9.24Z" transform="translate(-5 -5)" fill="#265c3b"/>
</svg>
