<svg xmlns="http://www.w3.org/2000/svg" width="30.022" height="30.022" viewBox="0 0 30.022 30.022">
  <g id="Group_674" data-name="Group 674" transform="translate(-214.624 -14.704)">
    <path id="Path_689" data-name="Path 689" d="M238.957,33.255c-1.962-.808-3.842-1.412-4.13-1.5l-1.69-.845v-.952a4.5,4.5,0,0,0,2-3.742V21.3c.184-.5.944-2.829-.084-4.372-1.053-1.58-2.624-2.224-5.42-2.224a8.472,8.472,0,0,0-4.329,1.264,7.063,7.063,0,0,0-3.157,4.1,3.038,3.038,0,0,0,.3,2.957,2.349,2.349,0,0,0,1.683.7v2.482a4.5,4.5,0,0,0,2,3.742v.952l-1.689.845c-.288.091-2.168.695-4.13,1.5-2.979,1.227-4.659,2.287-5.136,3.241-.092.185-.553,1.426-.553,7.73a.5.5,0,0,0,.5.5h29.021a.5.5,0,0,0,.5-.5c0-6.3-.461-7.545-.553-7.73C243.615,35.542,241.936,34.482,238.957,33.255Zm4.241,3.689-.005-.01Zm-7.209-.458-5.8,2.9c.278-.431.583-.933.889-1.488a15.357,15.357,0,0,0,2.027-5.892l1.153.576Zm-6.356,1.893a22.041,22.041,0,0,1-1.48-2.844,6.04,6.04,0,0,0,2.963,0A22.06,22.06,0,0,1,229.633,38.379Zm1.947-4.068a4.84,4.84,0,0,1-3.89,0c-.113-.342-.213-.689-.295-1.037a5.866,5.866,0,0,0,4.481,0C231.793,33.622,231.693,33.969,231.58,34.311Zm-5.069-12.6h7.627v1h-8.075A4.366,4.366,0,0,0,226.511,21.709Zm-3.316.653c-.413-.463-.274-1.352-.084-2.016.973-3.405,4.434-4.641,6.524-4.641,2.448,0,3.734.5,4.587,1.779.653.979.269,2.556.06,3.225h-7.437a2.252,2.252,0,0,1,.985-1.042.5.5,0,0,0-.389-.921,3.413,3.413,0,0,0-1.794,2.342c-.383,1.531-1.034,1.622-1.041,1.623a.107.107,0,0,1,.025,0,.454.454,0,0,0-.082.007A1.707,1.707,0,0,1,223.2,22.362Zm1.937,3.851v-2.5h9.006v2.5a3.506,3.506,0,0,1-3.5,3.5h-2A3.506,3.506,0,0,1,225.132,26.213Zm3.5,4.5h2a4.49,4.49,0,0,0,1.5-.258v.758a7.863,7.863,0,0,1-.043.8,3.287,3.287,0,0,1-.473.277,4.829,4.829,0,0,1-3.973,0,3.389,3.389,0,0,1-.472-.277,7.868,7.868,0,0,1-.043-.8v-.758A4.491,4.491,0,0,0,228.634,30.716Zm-2.464,1.291a17.8,17.8,0,0,0,2.865,7.3l-.027.04-5.727-2.863,1.735-3.9Zm-10.093,4.927,0,.01Zm0,0c.508-.975,3.389-2.244,4.609-2.747,1.139-.469,2.25-.868,3.026-1.135l-1.541,3.469a.5.5,0,0,0,.233.65l6.016,3.009c-.109.147-.174.228-.179.234a.5.5,0,0,0-.109.313h0v3h-2.5v-3.5a.5.5,0,0,0-.5-.5h-8.006a.5.5,0,0,0-.5.5v3.5h-1C215.648,38.245,216.038,37.042,216.079,36.93Zm8.552,4.794h-7v-1h7Zm-7,1h7v1h-7Zm24.018-1h-7v-1h7Zm-7,2v-1h7v1Zm8,0v-3.5a.5.5,0,0,0-.5-.5h-8.006a.5.5,0,0,0-.5.5v3.5h-4.5V41.032l7.729-3.864a.5.5,0,0,0,.233-.651l-1.541-3.469c.776.267,1.887.666,3.026,1.135,1.22.5,4.1,1.773,4.609,2.748.041.111.431,1.315.453,6.8Z" fill="#fff"/>
    <path id="Path_690" data-name="Path 690" d="M230.636,19.708a1.5,1.5,0,1,0-1.5-1.5A1.5,1.5,0,0,0,230.636,19.708Zm0-2a.5.5,0,1,1-.5.5A.5.5,0,0,1,230.636,17.706Z" fill="#fff"/>
  </g>
</svg>
